#N canvas 623 71 1791 961 12;
#X declare -path ../externals;
#X declare -path ../externals/ssr;
#X obj 11 11 declare -path ../externals;
#X obj 11 34 declare -path ../externals/ssr;
#X obj 11 121 source_player;
#X obj 12 560 osc_receiver 1;
#X obj 365 561 osc_receiver 2;
#X obj 714 560 osc_receiver 3;
#X obj 1060 558 osc_receiver 4;
#X text 3229 880 comment;
#X obj 253 1788 print;
#X obj 155 889 dac~ 1 2, f 16;
#X msg 12 774 src1-yaw \$1;
#X obj 45 838 r~ src1;
#X obj 100 838 r~ src2;
#X obj 155 838 r~ src3;
#X obj 210 838 r~ src4;
#X obj 394 834 r~ src1;
#X obj 504 834 r~ src3;
#X obj 559 834 r~ src4;
#X msg 365 770 src2-yaw \$1;
#X obj 736 831 r~ src1;
#X obj 791 831 r~ src2;
#X obj 846 831 r~ src3;
#X obj 901 831 r~ src4;
#X msg 714 766 src3-yaw \$1;
#X obj 1081 831 r~ src1;
#X obj 1136 831 r~ src2;
#X obj 1191 831 r~ src3;
#X obj 1246 831 r~ src4;
#X msg 1060 764 src4-yaw \$1;
#X obj 31 748 loadbang;
#X obj 381 745 loadbang;
#X obj 726 742 loadbang;
#X obj 1072 740 loadbang;
#X obj 504 883 dac~ 3 4, f 16;
#X obj 846 880 dac~ 5 6, f 16;
#X obj 1191 880 dac~ 7 8, f 16;
#X obj 1433 829 r~ src1;
#X obj 1488 829 r~ src2;
#X obj 1543 829 r~ src3;
#X obj 1598 829 r~ src4;
#X obj 1424 738 loadbang;
#X obj 1412 556 osc_receiver 5;
#X msg 1412 762 src5-yaw \$1;
#X obj 1543 878 dac~ 9 10, f 16;
#X obj 12 331 source_input;
#X obj 11 56 tracking_inversion;
#X msg 31 798 pd~ start ../externals/convolver_5_subheader_id1.pd, f 43;
#X msg 381 794 pd~ start ../externals/convolver_5_subheader_id2.pd, f 42;
#X msg 726 790 pd~ start ../externals/convolver_5_subheader_id3.pd, f 42;
#X msg 1072 790 pd~ start ../externals/convolver_5_subheader_id4.pd, f 42;
#X msg 1424 788 pd~ start ../externals/convolver_5_subheader_id5.pd, f 42;
#X obj 44 862 pd~ -ninsig 5 -noutsig 2 -fifo 2;
#X obj 265 838 r~ src5;
#X obj 393 858 pd~ -ninsig 5 -noutsig 2 -fifo 2;
#X obj 449 834 r~ src2;
#X obj 615 834 r~ src5;
#X obj 735 855 pd~ -ninsig 5 -noutsig 2 -fifo 2;
#X obj 956 831 r~ src5;
#X obj 1080 855 pd~ -ninsig 5 -noutsig 2 -fifo 2;
#X obj 1302 833 r~ src5;
#X obj 1432 853 pd~ -ninsig 5 -noutsig 2 -fifo 2;
#X obj 1654 829 r~ src5;
#X connect 2 0 44 0;
#X connect 3 0 10 0;
#X connect 4 0 18 0;
#X connect 5 0 23 0;
#X connect 6 0 28 0;
#X connect 10 0 51 0;
#X connect 11 0 51 0;
#X connect 12 0 51 1;
#X connect 13 0 51 2;
#X connect 14 0 51 3;
#X connect 15 0 53 0;
#X connect 16 0 53 2;
#X connect 17 0 53 3;
#X connect 18 0 53 0;
#X connect 19 0 56 0;
#X connect 20 0 56 1;
#X connect 21 0 56 2;
#X connect 22 0 56 3;
#X connect 23 0 56 0;
#X connect 24 0 58 0;
#X connect 25 0 58 1;
#X connect 26 0 58 2;
#X connect 27 0 58 3;
#X connect 28 0 58 0;
#X connect 29 0 46 0;
#X connect 30 0 47 0;
#X connect 31 0 48 0;
#X connect 32 0 49 0;
#X connect 36 0 60 0;
#X connect 37 0 60 1;
#X connect 38 0 60 2;
#X connect 39 0 60 3;
#X connect 40 0 50 0;
#X connect 41 0 42 0;
#X connect 42 0 60 0;
#X connect 46 0 51 0;
#X connect 47 0 53 0;
#X connect 48 0 56 0;
#X connect 49 0 58 0;
#X connect 50 0 60 0;
#X connect 51 1 9 0;
#X connect 51 2 9 1;
#X connect 52 0 51 4;
#X connect 53 1 33 0;
#X connect 53 2 33 1;
#X connect 54 0 53 1;
#X connect 55 0 53 4;
#X connect 56 1 34 0;
#X connect 56 2 34 1;
#X connect 57 0 56 4;
#X connect 58 1 35 0;
#X connect 58 2 35 1;
#X connect 59 0 58 4;
#X connect 60 1 43 0;
#X connect 60 2 43 1;
#X connect 61 0 60 4;
