#N canvas 52 20 1854 977 12;
#X declare -path ../externals;
#X declare -path ../externals/ssr;
#N canvas 1837 437 946 833 source-input.subpatch 0;
#X obj 103 405 adc~ 1 2 3 4, f 26;
#X obj 103 493 *~, f 4;
#X obj 103 609 outlet~;
#X obj 163 493 *~, f 4;
#X obj 163 609 outlet~;
#X obj 223 493 *~, f 4;
#X obj 223 609 outlet~;
#X obj 283 493 *~, f 4;
#X obj 283 609 outlet~;
#X obj 207 161 vsl 15 128 0 1 0 0 empty empty empty 0 -9 0 10 #e3c6ff #000000 #000000 0 1;
#X obj 262 161 vsl 15 128 0 1 0 0 empty empty empty 0 -9 0 10 #e3c6ff #000000 #000000 0 1;
#X obj 317 161 vsl 15 128 0 1 0 0 empty empty empty 0 -9 0 10 #e3c6ff #000000 #000000 0 1;
#X obj 372 161 vsl 15 128 0 1 0 0 empty empty empty 0 -9 0 10 #e3c6ff #000000 #000000 0 1;
#X obj 192 297 s \$0-in1;
#X obj 252 297 s \$0-in2;
#X obj 312 297 s \$0-in3;
#X obj 372 297 s \$0-in4;
#X obj 308 467 r \$0-in4;
#X obj 248 440 r \$0-in3;
#X obj 188 467 r \$0-in2;
#X obj 128 440 r \$0-in1;
#X text 203 135 in1;
#X text 256 135 in2;
#X text 367 135 in4;
#X text 311 135 in3;
#X obj 515 110 loadbang;
#X obj 515 135 f 0.75;
#X obj 125 161 vsl 15 128 0 1 0 0 empty empty empty 0 -9 0 10 #ffe3c6 #000000 #000000 0 1;
#X text 109 135 master;
#X obj 103 544 *~;
#X obj 163 544 *~;
#X obj 223 544 *~;
#X obj 283 544 *~;
#X obj 125 330 s \$0-master;
#X obj 415 501 r \$0-master;
#X obj 28 83 loadbang;
#X obj 28 108 f 0;
#X obj 109 569 s~ src1;
#X obj 169 569 s~ src2;
#X obj 229 569 s~ src3;
#X obj 289 569 s~ src4;
#X obj 91 373 inlet~;
#X obj 152 373 inlet~;
#X obj 208 373 inlet~;
#X obj 269 373 inlet~;
#X text 323 372 can be used for testing;
#X connect 0 0 1 0;
#X connect 0 1 3 0;
#X connect 0 2 5 0;
#X connect 0 3 7 0;
#X connect 1 0 29 0;
#X connect 3 0 30 0;
#X connect 5 0 31 0;
#X connect 7 0 32 0;
#X connect 9 0 13 0;
#X connect 10 0 14 0;
#X connect 11 0 15 0;
#X connect 12 0 16 0;
#X connect 17 0 7 1;
#X connect 18 0 5 1;
#X connect 19 0 3 1;
#X connect 20 0 1 1;
#X connect 25 0 26 0;
#X connect 26 0 12 0;
#X connect 26 0 11 0;
#X connect 26 0 10 0;
#X connect 26 0 9 0;
#X connect 27 0 33 0;
#X connect 29 0 2 0;
#X connect 29 0 37 0;
#X connect 30 0 4 0;
#X connect 30 0 38 0;
#X connect 31 0 6 0;
#X connect 31 0 39 0;
#X connect 32 0 8 0;
#X connect 32 0 40 0;
#X connect 34 0 32 1;
#X connect 34 0 31 1;
#X connect 34 0 30 1;
#X connect 34 0 29 1;
#X connect 35 0 36 0;
#X connect 36 0 27 0;
#X connect 41 0 1 0;
#X connect 42 0 3 0;
#X connect 43 0 5 0;
#X connect 44 0 7 0;
#X coords 0 -1 1 1 300 200 1 100 100;
#X restore 10 338 pd source-input.subpatch;
#N canvas 3974 466 1260 540 tracking-inversion 0;
#X obj 192 142 tgl 15 0 empty empty empty 17 7 0 10 #fcfcfc #000000 #000000 0 1;
#X obj 192 166 expr if ($f1 == 1 \, $f1 \, -1), f 18;
#X text 107 78 set to 1 if azimuth is mirrored;
#X obj 192 207 s polarity-azim;
#X text 187 117 yaw;
#X obj 251 142 tgl 15 0 empty empty empty 17 7 0 10 #fcfcfc #000000 #000000 0 1;
#X text 238 117 pitch;
#X obj 304 142 tgl 15 0 empty empty empty 17 7 0 10 #fcfcfc #000000 #000000 0 1;
#X text 294 117 roll;
#X text 101 137 inverse;
#X obj 251 238 expr if ($f1 == 1 \, $f1 \, -1), f 18;
#X obj 251 279 s polarity-pitch;
#X obj 304 314 expr if ($f1 == 1 \, $f1 \, -1), f 18;
#X obj 304 355 s polarity-roll;
#X connect 0 0 1 0;
#X connect 1 0 3 0;
#X connect 5 0 10 0;
#X connect 7 0 12 0;
#X connect 10 0 11 0;
#X connect 12 0 13 0;
#X coords 0 -1 1 1 230 60 2 100 100;
#X restore 11 57 pd tracking-inversion;
#X obj 11 11 declare -path ../externals;
#X obj 11 34 declare -path ../externals/ssr;
#X obj 11 121 source_player;
#X obj 9 546 osc_receiver 1;
#X obj 362 547 osc_receiver 2;
#X obj 711 546 osc_receiver 3;
#X obj 1057 544 osc_receiver 4;
#X text 3229 880 comment;
#X obj 253 1788 print;
#X obj 152 825 dac~ 1 2, f 16;
#X obj 41 798 pd~ -ninsig 4 -noutsig 2 -fifo 2;
#X msg 28 734 pd~ start ../externals/convolver_4_subheader_id1.pd, f 43;
#X msg 9 710 src1-yaw \$1;
#X obj 42 774 r~ src1;
#X obj 113 774 r~ src2;
#X obj 187 774 r~ src3;
#X obj 262 774 r~ src4;
#X obj 390 794 pd~ -ninsig 4 -noutsig 2 -fifo 2;
#X obj 391 770 r~ src1;
#X obj 462 770 r~ src2;
#X obj 536 770 r~ src3;
#X obj 611 770 r~ src4;
#X msg 362 706 src2-yaw \$1;
#X msg 378 730 pd~ start ../externals/convolver_4_subheader_id2.pd, f 42;
#X obj 732 791 pd~ -ninsig 4 -noutsig 2 -fifo 2;
#X obj 733 767 r~ src1;
#X obj 804 767 r~ src2;
#X obj 878 767 r~ src3;
#X obj 953 767 r~ src4;
#X msg 723 726 pd~ start ../externals/convolver_4_subheader_id3.pd, f 42;
#X msg 711 702 src3-yaw \$1;
#X obj 1077 791 pd~ -ninsig 4 -noutsig 2 -fifo 2;
#X obj 1078 767 r~ src1;
#X obj 1149 767 r~ src2;
#X obj 1223 767 r~ src3;
#X obj 1298 767 r~ src4;
#X msg 1057 700 src4-yaw \$1;
#X msg 1069 726 pd~ start ../externals/convolver_4_subheader_id4.pd, f 42;
#X obj 28 684 loadbang;
#X obj 378 681 loadbang;
#X obj 723 678 loadbang;
#X obj 1069 676 loadbang;
#X obj 501 819 dac~ 3 4, f 16;
#X obj 843 816 dac~ 5 6, f 16;
#X obj 1188 816 dac~ 7 8, f 16;
#X obj 1429 789 pd~ -ninsig 4 -noutsig 2 -fifo 2;
#X obj 1430 765 r~ src1;
#X obj 1501 765 r~ src2;
#X obj 1575 765 r~ src3;
#X obj 1650 765 r~ src4;
#X obj 1421 674 loadbang;
#X obj 1409 542 osc_receiver 5;
#X msg 1409 698 src5-yaw \$1;
#X msg 1421 724 pd~ start ../externals/convolver_4_subheader_id5.pd, f 42;
#X obj 1540 814 dac~ 9 10, f 16;
#X connect 4 0 0 0;
#X connect 5 0 14 0;
#X connect 6 0 24 0;
#X connect 7 0 32 0;
#X connect 8 0 38 0;
#X connect 12 1 11 0;
#X connect 12 2 11 1;
#X connect 13 0 12 0;
#X connect 14 0 12 0;
#X connect 15 0 12 0;
#X connect 16 0 12 1;
#X connect 17 0 12 2;
#X connect 18 0 12 3;
#X connect 19 1 44 0;
#X connect 19 2 44 1;
#X connect 20 0 19 0;
#X connect 21 0 19 1;
#X connect 22 0 19 2;
#X connect 23 0 19 3;
#X connect 24 0 19 0;
#X connect 25 0 19 0;
#X connect 26 1 45 0;
#X connect 26 2 45 1;
#X connect 27 0 26 0;
#X connect 28 0 26 1;
#X connect 29 0 26 2;
#X connect 30 0 26 3;
#X connect 31 0 26 0;
#X connect 32 0 26 0;
#X connect 33 1 46 0;
#X connect 33 2 46 1;
#X connect 34 0 33 0;
#X connect 35 0 33 1;
#X connect 36 0 33 2;
#X connect 37 0 33 3;
#X connect 38 0 33 0;
#X connect 39 0 33 0;
#X connect 40 0 13 0;
#X connect 41 0 25 0;
#X connect 42 0 31 0;
#X connect 43 0 39 0;
#X connect 47 1 56 0;
#X connect 47 2 56 1;
#X connect 48 0 47 0;
#X connect 49 0 47 1;
#X connect 50 0 47 2;
#X connect 51 0 47 3;
#X connect 52 0 55 0;
#X connect 53 0 54 0;
#X connect 54 0 47 0;
#X connect 55 0 47 0;
