#N canvas 52 20 1854 977 12;
#X declare -path ../externals;
#X declare -path ../externals/ssr;
#N canvas 3974 466 1260 540 tracking-inversion 0;
#X obj 192 142 tgl 15 0 empty empty empty 17 7 0 10 #fcfcfc #000000 #000000 0 1;
#X obj 192 166 expr if ($f1 == 1 \, $f1 \, -1), f 18;
#X text 107 78 set to 1 if azimuth is mirrored;
#X obj 192 207 s polarity-azim;
#X text 187 117 yaw;
#X obj 251 142 tgl 15 0 empty empty empty 17 7 0 10 #fcfcfc #000000 #000000 0 1;
#X text 238 117 pitch;
#X obj 304 142 tgl 15 0 empty empty empty 17 7 0 10 #fcfcfc #000000 #000000 0 1;
#X text 294 117 roll;
#X text 101 137 inverse;
#X obj 251 238 expr if ($f1 == 1 \, $f1 \, -1), f 18;
#X obj 251 279 s polarity-pitch;
#X obj 304 314 expr if ($f1 == 1 \, $f1 \, -1), f 18;
#X obj 304 355 s polarity-roll;
#X connect 0 0 1 0;
#X connect 1 0 3 0;
#X connect 5 0 10 0;
#X connect 7 0 12 0;
#X connect 10 0 11 0;
#X connect 12 0 13 0;
#X coords 0 -1 1 1 230 60 2 100 100;
#X restore 11 57 pd tracking-inversion;
#X obj 11 11 declare -path ../externals;
#X obj 11 34 declare -path ../externals/ssr;
#X obj 11 121 source_player;
#X obj 12 559 osc_receiver 1;
#X obj 365 560 osc_receiver 2;
#X obj 714 559 osc_receiver 3;
#X obj 1060 557 osc_receiver 4;
#X text 3229 880 comment;
#X obj 253 1788 print;
#X obj 155 838 dac~ 1 2, f 16;
#X obj 44 811 pd~ -ninsig 4 -noutsig 2 -fifo 2;
#X msg 31 747 pd~ start ../externals/convolver_4_subheader_id1.pd, f 43;
#X msg 12 723 src1-yaw \$1;
#X obj 45 787 r~ src1;
#X obj 116 787 r~ src2;
#X obj 190 787 r~ src3;
#X obj 265 787 r~ src4;
#X obj 393 807 pd~ -ninsig 4 -noutsig 2 -fifo 2;
#X obj 394 783 r~ src1;
#X obj 465 783 r~ src2;
#X obj 539 783 r~ src3;
#X obj 614 783 r~ src4;
#X msg 365 719 src2-yaw \$1;
#X msg 381 743 pd~ start ../externals/convolver_4_subheader_id2.pd, f 42;
#X obj 735 804 pd~ -ninsig 4 -noutsig 2 -fifo 2;
#X obj 736 780 r~ src1;
#X obj 807 780 r~ src2;
#X obj 881 780 r~ src3;
#X obj 956 780 r~ src4;
#X msg 726 739 pd~ start ../externals/convolver_4_subheader_id3.pd, f 42;
#X msg 714 715 src3-yaw \$1;
#X obj 1080 804 pd~ -ninsig 4 -noutsig 2 -fifo 2;
#X obj 1081 780 r~ src1;
#X obj 1152 780 r~ src2;
#X obj 1226 780 r~ src3;
#X obj 1301 780 r~ src4;
#X msg 1060 713 src4-yaw \$1;
#X msg 1072 739 pd~ start ../externals/convolver_4_subheader_id4.pd, f 42;
#X obj 31 697 loadbang;
#X obj 381 694 loadbang;
#X obj 726 691 loadbang;
#X obj 1072 689 loadbang;
#X obj 504 832 dac~ 3 4, f 16;
#X obj 846 829 dac~ 5 6, f 16;
#X obj 1191 829 dac~ 7 8, f 16;
#X obj 1432 802 pd~ -ninsig 4 -noutsig 2 -fifo 2;
#X obj 1433 778 r~ src1;
#X obj 1504 778 r~ src2;
#X obj 1578 778 r~ src3;
#X obj 1653 778 r~ src4;
#X obj 1424 687 loadbang;
#X obj 1412 555 osc_receiver 5;
#X msg 1412 711 src5-yaw \$1;
#X msg 1424 737 pd~ start ../externals/convolver_4_subheader_id5.pd, f 42;
#X obj 1543 827 dac~ 9 10, f 16;
#X obj 12 331 source_input;
#X connect 4 0 13 0;
#X connect 5 0 23 0;
#X connect 6 0 31 0;
#X connect 7 0 37 0;
#X connect 11 1 10 0;
#X connect 11 2 10 1;
#X connect 12 0 11 0;
#X connect 13 0 11 0;
#X connect 14 0 11 0;
#X connect 15 0 11 1;
#X connect 16 0 11 2;
#X connect 17 0 11 3;
#X connect 18 1 43 0;
#X connect 18 2 43 1;
#X connect 19 0 18 0;
#X connect 20 0 18 1;
#X connect 21 0 18 2;
#X connect 22 0 18 3;
#X connect 23 0 18 0;
#X connect 24 0 18 0;
#X connect 25 1 44 0;
#X connect 25 2 44 1;
#X connect 26 0 25 0;
#X connect 27 0 25 1;
#X connect 28 0 25 2;
#X connect 29 0 25 3;
#X connect 30 0 25 0;
#X connect 31 0 25 0;
#X connect 32 1 45 0;
#X connect 32 2 45 1;
#X connect 33 0 32 0;
#X connect 34 0 32 1;
#X connect 35 0 32 2;
#X connect 36 0 32 3;
#X connect 37 0 32 0;
#X connect 38 0 32 0;
#X connect 39 0 12 0;
#X connect 40 0 24 0;
#X connect 41 0 30 0;
#X connect 42 0 38 0;
#X connect 46 1 55 0;
#X connect 46 2 55 1;
#X connect 47 0 46 0;
#X connect 48 0 46 1;
#X connect 49 0 46 2;
#X connect 50 0 46 3;
#X connect 51 0 54 0;
#X connect 52 0 53 0;
#X connect 53 0 46 0;
#X connect 54 0 46 0;
