#N canvas 1775 448 679 740 12;
#X declare -path ../externals;
#X declare -path ../externals/ssr;
#X obj 317 697 dac~ 1 2, f 42;
#N canvas 3974 466 1260 540 tracking-inversion 0;
#X obj 192 138 tgl 15 0 empty empty empty 17 7 0 10 #fcfcfc #000000
#000000 0 1;
#X obj 192 166 expr if ($f1 == 1 \, $f1 \, -1), f 18;
#X text 107 78 set to 1 if azimuth is mirrored;
#X obj 192 207 s polarity-azim;
#X text 187 113 yaw;
#X obj 251 138 tgl 15 0 empty empty empty 17 7 0 10 #fcfcfc #000000
#000000 0 1;
#X text 238 113 pitch;
#X obj 304 138 tgl 15 0 empty empty empty 17 7 0 10 #fcfcfc #000000
#000000 0 1;
#X text 294 113 roll;
#X text 101 133 inverse;
#X obj 251 238 expr if ($f1 == 1 \, $f1 \, -1), f 18;
#X obj 251 279 s polarity-pitch;
#X obj 304 314 expr if ($f1 == 1 \, $f1 \, -1), f 18;
#X obj 304 355 s polarity-roll;
#X connect 0 0 1 0;
#X connect 1 0 3 0;
#X connect 5 0 10 0;
#X connect 7 0 12 0;
#X connect 10 0 11 0;
#X connect 12 0 13 0;
#X coords 0 -1 1 1 230 60 2 100 100;
#X restore 11 58 pd tracking-inversion;
#X obj 11 11 declare -path ../externals;
#X obj 11 34 declare -path ../externals/ssr;
#N canvas 1837 437 946 833 source-input.subpatch 0;
#X obj 103 405 adc~ 1 2 3 4, f 26;
#X obj 103 493 *~, f 4;
#X obj 103 609 outlet~;
#X obj 163 493 *~, f 4;
#X obj 163 609 outlet~;
#X obj 223 493 *~, f 4;
#X obj 223 609 outlet~;
#X obj 283 493 *~, f 4;
#X obj 283 609 outlet~;
#X obj 207 161 vsl 15 128 0 1 0 0 empty empty empty 0 -9 0 10 #e3c6ff
#000000 #000000 0 1;
#X obj 262 161 vsl 15 128 0 1 0 0 empty empty empty 0 -9 0 10 #e3c6ff
#000000 #000000 0 1;
#X obj 317 161 vsl 15 128 0 1 0 0 empty empty empty 0 -9 0 10 #e3c6ff
#000000 #000000 0 1;
#X obj 372 161 vsl 15 128 0 1 0 0 empty empty empty 0 -9 0 10 #e3c6ff
#000000 #000000 0 1;
#X obj 192 297 s \$0-in1;
#X obj 252 297 s \$0-in2;
#X obj 312 297 s \$0-in3;
#X obj 372 297 s \$0-in4;
#X obj 308 467 r \$0-in4;
#X obj 248 440 r \$0-in3;
#X obj 188 467 r \$0-in2;
#X obj 128 440 r \$0-in1;
#X text 203 135 in1;
#X text 256 135 in2;
#X text 367 135 in4;
#X text 311 135 in3;
#X obj 515 110 loadbang;
#X obj 515 135 f 0.75;
#X obj 125 161 vsl 15 128 0 1 0 0 empty empty empty 0 -9 0 10 #ffe3c6
#000000 #000000 0 1;
#X text 109 135 master;
#X obj 103 544 *~;
#X obj 163 544 *~;
#X obj 223 544 *~;
#X obj 283 544 *~;
#X obj 125 330 s \$0-master;
#X obj 415 501 r \$0-master;
#X obj 28 83 loadbang;
#X obj 28 108 f 0;
#X obj 109 569 s~ src1;
#X obj 169 569 s~ src2;
#X obj 229 569 s~ src3;
#X obj 289 569 s~ src4;
#X obj 91 373 inlet~;
#X obj 152 373 inlet~;
#X obj 208 373 inlet~;
#X obj 269 373 inlet~;
#X text 323 372 can be used for testing;
#X connect 0 0 1 0;
#X connect 0 1 3 0;
#X connect 0 2 5 0;
#X connect 0 3 7 0;
#X connect 1 0 29 0;
#X connect 3 0 30 0;
#X connect 5 0 31 0;
#X connect 7 0 32 0;
#X connect 9 0 13 0;
#X connect 10 0 14 0;
#X connect 11 0 15 0;
#X connect 12 0 16 0;
#X connect 17 0 7 1;
#X connect 18 0 5 1;
#X connect 19 0 3 1;
#X connect 20 0 1 1;
#X connect 25 0 26 0;
#X connect 26 0 12 0;
#X connect 26 0 11 0;
#X connect 26 0 10 0;
#X connect 26 0 9 0;
#X connect 27 0 33 0;
#X connect 29 0 2 0;
#X connect 29 0 37 0;
#X connect 30 0 4 0;
#X connect 30 0 38 0;
#X connect 31 0 6 0;
#X connect 31 0 39 0;
#X connect 32 0 8 0;
#X connect 32 0 40 0;
#X connect 34 0 32 1;
#X connect 34 0 31 1;
#X connect 34 0 30 1;
#X connect 34 0 29 1;
#X connect 35 0 36 0;
#X connect 36 0 27 0;
#X connect 41 0 1 0;
#X connect 42 0 3 0;
#X connect 43 0 5 0;
#X connect 44 0 7 0;
#X coords 0 -1 1 1 300 197 1 100 100;
#X restore 11 329 pd source-input.subpatch;
#X obj 11 123 source_player;
#X obj 316 123 file_loader 1;
#X obj 316 257 osc_receiver 1;
#X obj 331 622 convolver_4 1 2;
#X obj 316 386 binaural_player 1;
#X connect 8 0 0 0;
#X connect 8 1 0 1;
#X connect 9 0 0 0;
#X connect 9 1 0 1;
