#N canvas 1866 -8 1246 660 12;
#X declare -path ../externals;
#X declare -path ../externals/ssr;
#N canvas 1044 606 888 984 osc-receiver.subpatch 0;
#X obj 89 445 netreceive -u -b;
#X obj 89 469 oscparse;
#X obj 63 765 outlet;
#X obj 138 386 inlet;
#X obj 183 827 outlet;
#X obj 129 611 spigot;
#X obj 168 583 inlet;
#X obj 286 837 outlet;
#X msg 89 415 listen \$1;
#X obj 89 493 list trim;
#X obj 89 518 list split 3;
#X obj 129 636 unpack f f f, f 16;
#X obj 129 660 expr round($f1);
#X obj 237 715 expr round($f1);
#X obj 183 690 expr round($f1);
#X floatatom 195 133 7 0 0 0 - - - 0;
#X obj 196 158 tgl 20 0 empty empty empty 17 7 0 10 #ffffff #000000
#000000 0 1;
#X floatatom 196 184 7 0 0 0 - - - 0;
#X floatatom 267 184 7 0 0 0 - - - 0;
#X floatatom 335 184 7 0 0 0 - - - 0;
#X text 207 204 yaw;
#X text 273 204 pitch;
#X text 340 204 roll;
#X text 105 132 osc port;
#X text 106 158 activate;
#X text 106 184 coordinates;
#X text 364 103 src1;
#X obj 555 64 r src1-yaw;
#X obj 561 87 r src1-pitch;
#X obj 572 109 r src1-roll;
#X obj 532 152 s \$0-oscport-src1;
#X obj 533 178 s \$0-oscactivate-src1;
#X obj 90 362 r \$0-oscport-src1;
#X obj 28 789 s src1-yaw;
#X obj 134 851 s src1-pitch;
#X obj 244 861 s src1-roll;
#X obj 215 581 r \$0-oscactivate-src1;
#X connect 0 0 1 0;
#X connect 1 0 9 0;
#X connect 3 0 8 0;
#X connect 5 0 11 0;
#X connect 6 0 5 1;
#X connect 8 0 0 0;
#X connect 9 0 10 0;
#X connect 10 1 5 0;
#X connect 11 0 12 0;
#X connect 11 1 14 0;
#X connect 11 2 13 0;
#X connect 12 0 2 0;
#X connect 12 0 33 0;
#X connect 13 0 7 0;
#X connect 13 0 35 0;
#X connect 14 0 4 0;
#X connect 14 0 34 0;
#X connect 15 0 30 0;
#X connect 16 0 31 0;
#X connect 27 0 17 0;
#X connect 28 0 18 0;
#X connect 29 0 19 0;
#X connect 32 0 8 0;
#X connect 36 0 5 1;
#X coords 0 -1 1 1 300 125 1 100 100;
#X restore 10 258 pd osc-receiver.subpatch;
#N canvas 1613 179 1343 1306 file-loader.subpatch 0;
#X floatatom 228 135 8 0 0 0 - - - 0;
#X floatatom 228 165 8 0 0 0 - - - 0;
#X text 111 135 range (bipolar);
#X text 111 164 resolution;
#X listbox 228 193 10 0 0 0 - - - 0;
#X msg 461 1240 symbol ..done!;
#X obj 13 173 r done-msg;
#X text 111 193 status;
#X obj 461 613 until;
#X obj 461 636 f;
#X obj 491 636 + 1;
#X obj 586 775 list fromsymbol;
#X obj 586 821 list tosymbol;
#X obj 506 613 0;
#X msg 586 752 symbol array\$1;
#X obj 493 844 pack f f s, f 14;
#X obj 540 798 + 30;
#X obj 493 775 * 200;
#X obj 540 775 * 23;
#X obj 493 752 mod 3;
#X obj 540 752 div 3;
#X obj 107 484 s \$0-number-brirs;
#X obj 844 499 r \$0-number-brirs;
#X obj 461 1029 soundfiler;
#X obj 461 691 t f f f f;
#X obj 461 661 *;
#X obj 461 1061 t b;
#X obj 461 1087 f;
#X obj 510 1109 + 1;
#X floatatom 461 1139 5 0 0 0 - - - 0;
#X obj 139 461 s \$0-reset-counter;
#X obj 541 1003 r \$0-reset-counter;
#X obj 461 1167 %;
#X obj 461 1191 select 0 1;
#X obj 491 1061 1;
#X obj 249 353 t b f f;
#X obj 107 435 t f f;
#X obj 541 1029 t f b;
#X obj 107 411 expr ($f1 / $f2) * 2 + 1;
#X obj 107 369 t f f;
#X msg 493 867 obj \$1 \$2 array define \$3;
#X obj 461 1110 t a a;
#X obj 461 787 -;
#X obj 586 728 -;
#X obj 876 603 until;
#X obj 876 626 f;
#X obj 906 626 + 1;
#X msg 978 603 clear;
#X obj 1002 772 list fromsymbol;
#X obj 1002 818 list tosymbol;
#X obj 921 603 0;
#X obj 876 572 t f b b;
#X msg 1002 749 symbol array\$1;
#X obj 909 841 pack f f s, f 14;
#X obj 956 795 + 30;
#X obj 909 772 * 200;
#X obj 956 772 * 23;
#X obj 909 749 mod 3;
#X obj 956 749 div 3;
#X obj 876 1019 soundfiler;
#X obj 876 681 t f f f f;
#X obj 876 651 *;
#X obj 876 1053 t b;
#X obj 876 1079 f;
#X obj 925 1101 + 1;
#X floatatom 876 1131 5 0 0 0 - - - 0;
#X obj 957 993 r \$0-reset-counter;
#X obj 876 1159 %;
#X obj 876 1183 select 0 1;
#X obj 906 1053 1;
#X obj 957 1019 t f b;
#X msg 909 864 obj \$1 \$2 array define \$3;
#X obj 876 1102 t a a;
#X obj 876 766 -;
#X obj 1002 725 -;
#X obj 493 798 + 30;
#X obj 844 523 t f f;
#X obj 909 795 + 830;
#X obj 461 1265 s done-msg;
#X text 101 71 range currently two-dimensional (azimuth);
#X obj 107 344 r angular-range;
#X obj 249 329 r angular-resolution;
#X obj 461 575 t f b;
#X obj 228 14 loadbang;
#X msg 228 39 symbol empty..;
#X obj 1002 795 list prepend 114 49 45 114 105 103 104 116 45;
#X obj 586 798 list prepend 114 49 45 108 101 102 116 45;
#X msg 876 917 read -resize ../resources/convolved/convolved_R1_\$1azim_0elev_right.wav
r1-right-array\$1, f 31;
#X msg 461 923 read -resize ../resources/convolved/convolved_R1_\$1azim_0elev_left.wav
r1-left-array\$1, f 31;
#X obj 493 890 s pd-\$0-arrays-r1;
#X obj 909 887 s pd-\$0-arrays-r1;
#X obj 978 626 s pd-\$0-arrays-r1;
#N canvas 153 177 1387 720 \$0-arrays-r1 0;
#X obj 830 30 array define r1-right-array-60;
#X obj 1230 30 array define r1-right-array-58;
#X obj 1030 53 array define r1-right-array-56;
#X obj 830 76 array define r1-right-array-54;
#X obj 1230 76 array define r1-right-array-52;
#X obj 1030 99 array define r1-right-array-50;
#X obj 830 122 array define r1-right-array-48;
#X obj 1230 122 array define r1-right-array-46;
#X obj 1030 145 array define r1-right-array-44;
#X obj 830 168 array define r1-right-array-42;
#X obj 1230 168 array define r1-right-array-40;
#X obj 1030 191 array define r1-right-array-38;
#X obj 830 214 array define r1-right-array-36;
#X obj 1230 214 array define r1-right-array-34;
#X obj 1030 237 array define r1-right-array-32;
#X obj 830 260 array define r1-right-array-30;
#X obj 1230 260 array define r1-right-array-28;
#X obj 1030 283 array define r1-right-array-26;
#X obj 830 306 array define r1-right-array-24;
#X obj 1230 306 array define r1-right-array-22;
#X obj 1030 329 array define r1-right-array-20;
#X obj 830 352 array define r1-right-array-18;
#X obj 1230 352 array define r1-right-array-16;
#X obj 1030 375 array define r1-right-array-14;
#X obj 830 398 array define r1-right-array-12;
#X obj 1230 398 array define r1-right-array-10;
#X obj 1030 421 array define r1-right-array-8;
#X obj 830 444 array define r1-right-array-6;
#X obj 1230 444 array define r1-right-array-4;
#X obj 1030 467 array define r1-right-array-2;
#X obj 830 490 array define r1-right-array0;
#X obj 1230 490 array define r1-right-array2;
#X obj 1030 513 array define r1-right-array4;
#X obj 830 536 array define r1-right-array6;
#X obj 1230 536 array define r1-right-array8;
#X obj 1030 559 array define r1-right-array10;
#X obj 830 582 array define r1-right-array12;
#X obj 1230 582 array define r1-right-array14;
#X obj 1030 605 array define r1-right-array16;
#X obj 830 628 array define r1-right-array18;
#X obj 1230 628 array define r1-right-array20;
#X obj 1030 651 array define r1-right-array22;
#X obj 830 674 array define r1-right-array24;
#X obj 1230 674 array define r1-right-array26;
#X obj 1030 697 array define r1-right-array28;
#X obj 830 720 array define r1-right-array30;
#X obj 1230 720 array define r1-right-array32;
#X obj 1030 743 array define r1-right-array34;
#X obj 830 766 array define r1-right-array36;
#X obj 1230 766 array define r1-right-array38;
#X obj 1030 789 array define r1-right-array40;
#X obj 830 812 array define r1-right-array42;
#X obj 1230 812 array define r1-right-array44;
#X obj 1030 835 array define r1-right-array46;
#X obj 830 858 array define r1-right-array48;
#X obj 1230 858 array define r1-right-array50;
#X obj 1030 881 array define r1-right-array52;
#X obj 830 904 array define r1-right-array54;
#X obj 1230 904 array define r1-right-array56;
#X obj 1030 927 array define r1-right-array58;
#X obj 830 950 array define r1-right-array60;
#X obj 30 30 array define r1-left-array-60;
#X obj 430 30 array define r1-left-array-58;
#X obj 230 53 array define r1-left-array-56;
#X obj 30 76 array define r1-left-array-54;
#X obj 430 76 array define r1-left-array-52;
#X obj 230 99 array define r1-left-array-50;
#X obj 30 122 array define r1-left-array-48;
#X obj 430 122 array define r1-left-array-46;
#X obj 230 145 array define r1-left-array-44;
#X obj 30 168 array define r1-left-array-42;
#X obj 430 168 array define r1-left-array-40;
#X obj 230 191 array define r1-left-array-38;
#X obj 30 214 array define r1-left-array-36;
#X obj 430 214 array define r1-left-array-34;
#X obj 230 237 array define r1-left-array-32;
#X obj 30 260 array define r1-left-array-30;
#X obj 430 260 array define r1-left-array-28;
#X obj 230 283 array define r1-left-array-26;
#X obj 30 306 array define r1-left-array-24;
#X obj 430 306 array define r1-left-array-22;
#X obj 230 329 array define r1-left-array-20;
#X obj 30 352 array define r1-left-array-18;
#X obj 430 352 array define r1-left-array-16;
#X obj 230 375 array define r1-left-array-14;
#X obj 30 398 array define r1-left-array-12;
#X obj 430 398 array define r1-left-array-10;
#X obj 230 421 array define r1-left-array-8;
#X obj 30 444 array define r1-left-array-6;
#X obj 430 444 array define r1-left-array-4;
#X obj 230 467 array define r1-left-array-2;
#X obj 30 490 array define r1-left-array0;
#X obj 430 490 array define r1-left-array2;
#X obj 230 513 array define r1-left-array4;
#X obj 30 536 array define r1-left-array6;
#X obj 430 536 array define r1-left-array8;
#X obj 230 559 array define r1-left-array10;
#X obj 30 582 array define r1-left-array12;
#X obj 430 582 array define r1-left-array14;
#X obj 230 605 array define r1-left-array16;
#X obj 30 628 array define r1-left-array18;
#X obj 430 628 array define r1-left-array20;
#X obj 230 651 array define r1-left-array22;
#X obj 30 674 array define r1-left-array24;
#X obj 430 674 array define r1-left-array26;
#X obj 230 697 array define r1-left-array28;
#X obj 30 720 array define r1-left-array30;
#X obj 430 720 array define r1-left-array32;
#X obj 230 743 array define r1-left-array34;
#X obj 30 766 array define r1-left-array36;
#X obj 430 766 array define r1-left-array38;
#X obj 230 789 array define r1-left-array40;
#X obj 30 812 array define r1-left-array42;
#X obj 430 812 array define r1-left-array44;
#X obj 230 835 array define r1-left-array46;
#X obj 30 858 array define r1-left-array48;
#X obj 430 858 array define r1-left-array50;
#X obj 230 881 array define r1-left-array52;
#X obj 30 904 array define r1-left-array54;
#X obj 430 904 array define r1-left-array56;
#X obj 230 927 array define r1-left-array58;
#X obj 30 950 array define r1-left-array60;
#X restore 10 11 pd \$0-arrays-r1;
#X text 342 102 player1;
#X obj 413 184 change;
#X obj 413 209 s angular-resolution;
#X obj 471 154 change;
#X obj 471 179 s angular-range;
#X obj 629 115 r angular-range;
#X obj 629 145 r angular-resolution;
#X connect 0 0 96 0;
#X connect 1 0 94 0;
#X connect 5 0 78 0;
#X connect 6 0 4 0;
#X connect 8 0 9 0;
#X connect 9 0 10 0;
#X connect 9 0 25 0;
#X connect 10 0 9 1;
#X connect 11 0 86 0;
#X connect 12 0 15 2;
#X connect 13 0 9 1;
#X connect 14 0 11 0;
#X connect 15 0 40 0;
#X connect 16 0 15 1;
#X connect 17 0 75 0;
#X connect 18 0 16 0;
#X connect 19 0 17 0;
#X connect 20 0 18 0;
#X connect 22 0 76 0;
#X connect 23 0 26 0;
#X connect 24 0 42 0;
#X connect 24 1 19 0;
#X connect 24 2 20 0;
#X connect 24 3 43 0;
#X connect 25 0 24 0;
#X connect 26 0 27 0;
#X connect 27 0 41 0;
#X connect 28 0 27 1;
#X connect 29 0 32 0;
#X connect 31 0 37 0;
#X connect 32 0 33 0;
#X connect 33 0 5 0;
#X connect 34 0 27 1;
#X connect 35 0 38 0;
#X connect 35 1 38 1;
#X connect 35 2 25 1;
#X connect 35 2 61 1;
#X connect 36 0 21 0;
#X connect 36 1 30 0;
#X connect 37 0 32 1;
#X connect 37 1 34 0;
#X connect 38 0 36 0;
#X connect 39 0 38 0;
#X connect 39 1 42 1;
#X connect 39 1 43 1;
#X connect 39 1 73 1;
#X connect 39 1 74 1;
#X connect 40 0 89 0;
#X connect 41 0 29 0;
#X connect 41 1 28 0;
#X connect 42 0 88 0;
#X connect 43 0 14 0;
#X connect 44 0 45 0;
#X connect 45 0 46 0;
#X connect 45 0 61 0;
#X connect 46 0 45 1;
#X connect 47 0 91 0;
#X connect 48 0 85 0;
#X connect 49 0 53 2;
#X connect 50 0 45 1;
#X connect 51 0 44 0;
#X connect 51 1 50 0;
#X connect 51 2 47 0;
#X connect 52 0 48 0;
#X connect 53 0 71 0;
#X connect 54 0 53 1;
#X connect 55 0 77 0;
#X connect 56 0 54 0;
#X connect 57 0 55 0;
#X connect 58 0 56 0;
#X connect 59 0 62 0;
#X connect 60 0 73 0;
#X connect 60 1 57 0;
#X connect 60 2 58 0;
#X connect 60 3 74 0;
#X connect 61 0 60 0;
#X connect 62 0 63 0;
#X connect 63 0 72 0;
#X connect 64 0 63 1;
#X connect 65 0 67 0;
#X connect 66 0 70 0;
#X connect 67 0 68 0;
#X connect 68 0 5 0;
#X connect 69 0 63 1;
#X connect 70 0 67 1;
#X connect 70 1 69 0;
#X connect 71 0 90 0;
#X connect 72 0 65 0;
#X connect 72 1 64 0;
#X connect 73 0 87 0;
#X connect 74 0 52 0;
#X connect 75 0 15 0;
#X connect 76 0 82 0;
#X connect 76 1 51 0;
#X connect 77 0 53 0;
#X connect 80 0 39 0;
#X connect 81 0 35 0;
#X connect 82 0 8 0;
#X connect 82 1 13 0;
#X connect 83 0 84 0;
#X connect 84 0 4 0;
#X connect 85 0 49 0;
#X connect 86 0 12 0;
#X connect 87 0 59 0;
#X connect 88 0 23 0;
#X connect 94 0 95 0;
#X connect 96 0 97 0;
#X connect 98 0 0 0;
#X connect 99 0 1 0;
#X coords 0 -1 1 1 300 130 1 100 100;
#X restore 11 121 pd file-loader.subpatch;
#N canvas 70 27 1850 984 binaural-player.subpatch 0;
#X obj 1142 557 hsl 162 19 0 1 0 0 empty empty empty -2 -10 0 12 #fcfcfc
#000000 #000000 0 1;
#X obj 1139 531 line, f 18;
#X obj 1139 396 tgl 19 0 empty empty empty 0 -10 0 12 #fcfcfc #000000
#000000 0 1;
#X obj 1139 421 select 0 1, f 18;
#X msg 1139 494 0 \$1;
#X msg 1200 494 1 \$1;
#X obj 1200 468 f 5.3;
#X obj 1139 467 f 5.3;
#X obj 956 408 * 1000;
#X obj 956 431 / 48000;
#X obj 219 338 loadbang;
#X obj 1102 1031 == 0;
#X obj 1314 1031 == 1;
#X obj 1102 1056 change 0;
#X obj 1314 1055 change 0;
#X obj 1102 1081 select 1;
#X obj 1314 1080 select 1;
#X obj 1139 361 t b f, f 10;
#X obj 544 658 swap 1;
#X obj 544 682 -, f 6;
#X obj 388 716 *~;
#X obj 526 716 *~;
#X obj 701 713 *~;
#X obj 835 714 *~;
#X obj 387 763 +~;
#X obj 526 762 +~;
#X obj 387 833 outlet~;
#X obj 526 832 outlet~;
#X msg 1314 1198 set \$1;
#X msg 1102 1201 set \$1;
#X obj 1102 1143 f;
#X obj 1314 1142 f;
#X msg 1102 1287 set \$1;
#X msg 1314 1288 set \$1;
#X obj 504 619 spigot;
#X msg 31 551 stop;
#X obj 1139 258 t f f, f 6;
#X obj 1139 336 spigot;
#X obj 1178 309 == 0;
#X obj 1178 284 mod 1;
#X obj 1210 258 r angular-resolution;
#X obj 181 525 list append, f 12;
#X obj 181 551 list trim;
#X obj 219 158 bng 20 250 50 0 empty empty empty 17 7 0 10 #c6ffc7
#000000 #000000;
#X floatatom 219 186 12 0 0 0 - - - 0;
#X obj 219 210 tgl 20 0 empty empty empty 17 7 0 10 #fcfcfc #000000
#000000 0 1;
#X obj 222 241 hsl 128 15 0 1 0 0 empty empty empty -2 -8 0 10 #ffe3c6
#000000 #000000 0 1;
#X obj 25 196 loadbang;
#X obj 25 221 f 0;
#X text 107 157 sart | stop;
#X obj 253 158 bng 20 250 50 0 empty empty empty 17 7 0 10 #ffc7c6
#000000 #000000;
#X text 108 183 start sample;
#X text 108 239 volume;
#X text 108 210 loop;
#X obj 449 230 s \$0-loop-binPlayer;
#X obj 543 595 r \$0-loop-binPlayer;
#X obj 449 256 s \$0-volume-binPlayer;
#X obj 599 178 s \$0-stop-binPlayer;
#X obj 181 476 r \$0-start-binPlayer;
#X obj 332 476 r \$0-start-time-binPlayer;
#X obj 31 526 r \$0-stop-binPlayer;
#X floatatom 219 267 12 0 0 0 - - - 0;
#X obj 388 545 r buffer1-left-p1;
#X obj 525 544 r buffer1-right-p1;
#X obj 700 543 r buffer2-left-p1;
#X obj 834 543 r buffer2-right-p1;
#X obj 1314 1313 s buffer2-right-p1;
#X obj 1206 387 s \$0-currentAngle-p1;
#X obj 1139 585 s \$0-currentSelected-p1;
#X obj 1383 1081 r \$0-currentAngle-p1;
#X obj 1102 989 r \$0-currentSelected-p1;
#X text 108 264 sample overlap;
#X obj 449 286 s \$0-blend-binPlayer;
#X obj 956 382 r \$0-blend-binPlayer;
#X msg 181 501 bang;
#X obj 220 303 bng 15 250 50 0 empty empty empty 17 7 0 10 #ffffff
#c6feff #ff0400;
#X obj 449 178 s \$0-start-binPlayer;
#X obj 449 205 s \$0-start-time-binPlayer;
#X obj 387 807 *~;
#X obj 526 806 *~;
#X obj 629 770 r \$0-volume-binPlayer;
#X obj 1102 1312 s buffer1-right-p1;
#X text 108 300 osc receive;
#X text 345 100 player1;
#X obj 19 18 array define default1;
#X obj 388 571 tabplay~ default1;
#X obj 525 571 tabplay~ default1;
#X obj 700 571 tabplay~ default1;
#X obj 834 571 tabplay~ default1;
#X obj 219 362 f 128;
#X obj 1314 1223 s buffer2-left-p1;
#X obj 1102 1226 s buffer1-left-p1;
#X obj 1102 1174 makefilename r1-left-array%d;
#X obj 1314 1173 makefilename r1-left-array%d;
#X obj 1314 1263 makefilename r1-right-array%d;
#X obj 1102 1263 makefilename r1-right-array%d;
#X obj 1139 232 * -1;
#X obj 1139 175 change;
#X obj 1139 150 r src1-yaw;
#X obj 1164 207 r polarity-azim;
#X connect 0 0 18 0;
#X connect 0 0 22 1;
#X connect 0 0 23 1;
#X connect 0 0 68 0;
#X connect 1 0 0 0;
#X connect 2 0 3 0;
#X connect 3 0 7 0;
#X connect 3 1 6 0;
#X connect 4 0 1 0;
#X connect 5 0 1 0;
#X connect 6 0 5 0;
#X connect 7 0 4 0;
#X connect 8 0 9 0;
#X connect 9 0 7 1;
#X connect 9 0 6 1;
#X connect 10 0 89 0;
#X connect 11 0 13 0;
#X connect 12 0 14 0;
#X connect 13 0 15 0;
#X connect 14 0 16 0;
#X connect 15 0 30 0;
#X connect 16 0 31 0;
#X connect 17 0 2 0;
#X connect 17 0 75 0;
#X connect 17 1 67 0;
#X connect 18 0 19 0;
#X connect 18 1 19 1;
#X connect 19 0 21 1;
#X connect 19 0 20 1;
#X connect 20 0 24 0;
#X connect 21 0 25 0;
#X connect 22 0 24 1;
#X connect 23 0 25 1;
#X connect 24 0 78 0;
#X connect 25 0 79 0;
#X connect 28 0 90 0;
#X connect 29 0 91 0;
#X connect 30 0 92 0;
#X connect 30 0 95 0;
#X connect 31 0 93 0;
#X connect 31 0 94 0;
#X connect 32 0 81 0;
#X connect 33 0 66 0;
#X connect 34 0 85 0;
#X connect 34 0 86 0;
#X connect 34 0 87 0;
#X connect 34 0 88 0;
#X connect 35 0 85 0;
#X connect 35 0 86 0;
#X connect 35 0 87 0;
#X connect 35 0 88 0;
#X connect 36 0 37 0;
#X connect 36 1 39 0;
#X connect 37 0 17 0;
#X connect 38 0 37 1;
#X connect 39 0 38 0;
#X connect 40 0 39 1;
#X connect 41 0 42 0;
#X connect 42 0 85 0;
#X connect 42 0 86 0;
#X connect 42 0 87 0;
#X connect 42 0 88 0;
#X connect 43 0 76 0;
#X connect 44 0 77 0;
#X connect 45 0 54 0;
#X connect 46 0 56 0;
#X connect 47 0 48 0;
#X connect 48 0 46 0;
#X connect 50 0 57 0;
#X connect 55 0 34 1;
#X connect 58 0 74 0;
#X connect 59 0 41 1;
#X connect 60 0 35 0;
#X connect 61 0 72 0;
#X connect 62 0 85 0;
#X connect 63 0 86 0;
#X connect 64 0 87 0;
#X connect 65 0 88 0;
#X connect 69 0 30 1;
#X connect 69 0 31 1;
#X connect 70 0 11 0;
#X connect 70 0 12 0;
#X connect 73 0 8 0;
#X connect 74 0 41 0;
#X connect 78 0 26 0;
#X connect 79 0 27 0;
#X connect 80 0 78 1;
#X connect 80 0 79 1;
#X connect 85 0 20 0;
#X connect 85 1 34 0;
#X connect 86 0 21 0;
#X connect 87 0 22 0;
#X connect 88 0 23 0;
#X connect 89 0 61 0;
#X connect 92 0 29 0;
#X connect 93 0 28 0;
#X connect 94 0 33 0;
#X connect 95 0 32 0;
#X connect 96 0 36 0;
#X connect 97 0 96 0;
#X connect 98 0 97 0;
#X connect 99 0 96 1;
#X coords 0 -1 1 1 300 230 1 100 100;
#X restore 10 388 pd binaural-player.subpatch;
#X obj 10 622 dac~ 1 2, f 42;
#N canvas 3974 466 1260 540 tracking-inversion 0;
#X obj 192 138 tgl 15 0 empty empty empty 17 7 0 10 #fcfcfc #000000
#000000 0 1;
#X obj 192 166 expr if ($f1 == 1 \, $f1 \, -1), f 18;
#X text 107 78 set to 1 if azimuth is mirrored;
#X obj 192 207 s polarity-azim;
#X text 187 113 yaw;
#X obj 251 138 tgl 15 0 empty empty empty 17 7 0 10 #fcfcfc #000000
#000000 0 1;
#X text 238 113 pitch;
#X obj 304 138 tgl 15 0 empty empty empty 17 7 0 10 #fcfcfc #000000
#000000 0 1;
#X text 294 113 roll;
#X text 101 133 inverse;
#X obj 251 238 expr if ($f1 == 1 \, $f1 \, -1), f 18;
#X obj 251 279 s polarity-pitch;
#X obj 304 314 expr if ($f1 == 1 \, $f1 \, -1), f 18;
#X obj 304 355 s polarity-roll;
#X connect 0 0 1 0;
#X connect 1 0 3 0;
#X connect 5 0 10 0;
#X connect 7 0 12 0;
#X connect 10 0 11 0;
#X connect 12 0 13 0;
#X coords 0 -1 1 1 230 60 2 100 100;
#X restore 11 58 pd tracking-inversion;
#X obj 11 11 declare -path ../externals;
#X obj 11 34 declare -path ../externals/ssr;
#N canvas 70 27 1850 984 binaural-player.subpatch 0;
#X obj 1142 557 hsl 162 19 0 1 0 0 empty empty empty -2 -10 0 12 #fcfcfc
#000000 #000000 0 1;
#X obj 1139 531 line, f 18;
#X obj 1139 396 tgl 19 0 empty empty empty 0 -10 0 12 #fcfcfc #000000
#000000 0 1;
#X obj 1139 421 select 0 1, f 18;
#X msg 1139 494 0 \$1;
#X msg 1200 494 1 \$1;
#X obj 1200 468 f 5.3;
#X obj 1139 467 f 5.3;
#X obj 956 408 * 1000;
#X obj 956 431 / 48000;
#X obj 219 338 loadbang;
#X obj 1102 1031 == 0;
#X obj 1314 1031 == 1;
#X obj 1102 1056 change 0;
#X obj 1314 1055 change 0;
#X obj 1102 1081 select 1;
#X obj 1314 1080 select 1;
#X obj 1139 361 t b f, f 10;
#X obj 544 658 swap 1;
#X obj 544 682 -, f 6;
#X obj 388 716 *~;
#X obj 526 716 *~;
#X obj 701 713 *~;
#X obj 835 714 *~;
#X obj 387 763 +~;
#X obj 526 762 +~;
#X obj 387 833 outlet~;
#X obj 526 832 outlet~;
#X msg 1314 1198 set \$1;
#X msg 1102 1201 set \$1;
#X obj 1102 1143 f;
#X obj 1314 1142 f;
#X msg 1102 1287 set \$1;
#X msg 1314 1288 set \$1;
#X obj 504 619 spigot;
#X msg 31 551 stop;
#X obj 1139 258 t f f, f 6;
#X obj 1139 336 spigot;
#X obj 1178 309 == 0;
#X obj 1178 284 mod 1;
#X obj 1210 258 r angular-resolution;
#X obj 181 525 list append, f 12;
#X obj 181 551 list trim;
#X obj 219 158 bng 20 250 50 0 empty empty empty 17 7 0 10 #c6ffc7
#000000 #000000;
#X floatatom 219 186 12 0 0 0 - - - 0;
#X obj 219 210 tgl 20 0 empty empty empty 17 7 0 10 #fcfcfc #000000
#000000 0 1;
#X obj 222 241 hsl 128 15 0 1 0 0 empty empty empty -2 -8 0 10 #ffe3c6
#000000 #000000 0 1;
#X obj 25 196 loadbang;
#X obj 25 221 f 0;
#X text 107 157 sart | stop;
#X obj 253 158 bng 20 250 50 0 empty empty empty 17 7 0 10 #ffc7c6
#000000 #000000;
#X text 108 183 start sample;
#X text 108 239 volume;
#X text 108 210 loop;
#X obj 449 230 s \$0-loop-binPlayer;
#X obj 543 595 r \$0-loop-binPlayer;
#X obj 449 256 s \$0-volume-binPlayer;
#X obj 599 178 s \$0-stop-binPlayer;
#X obj 181 476 r \$0-start-binPlayer;
#X obj 332 476 r \$0-start-time-binPlayer;
#X obj 31 526 r \$0-stop-binPlayer;
#X floatatom 219 267 12 0 0 0 - - - 0;
#X text 108 264 sample overlap;
#X obj 449 286 s \$0-blend-binPlayer;
#X obj 956 382 r \$0-blend-binPlayer;
#X msg 181 501 bang;
#X obj 220 303 bng 15 250 50 0 empty empty empty 17 7 0 10 #ffffff
#c6feff #ff0400;
#X obj 449 178 s \$0-start-binPlayer;
#X obj 449 205 s \$0-start-time-binPlayer;
#X obj 387 807 *~;
#X obj 526 806 *~;
#X obj 629 770 r \$0-volume-binPlayer;
#X text 108 300 osc receive;
#X obj 388 571 tabplay~ default1;
#X obj 525 571 tabplay~ default1;
#X obj 700 571 tabplay~ default1;
#X obj 834 571 tabplay~ default1;
#X obj 219 362 f 128;
#X text 345 100 player2;
#X obj 1206 388 s \$0-currentAngle-p2;
#X obj 1139 585 s \$0-currentSelected-p2;
#X obj 834 543 r buffer2-right-p2;
#X obj 700 543 r buffer2-left-p2;
#X obj 525 544 r buffer1-right-p2;
#X obj 388 545 r buffer1-left-p2;
#X obj 1102 1226 s buffer1-left-p2;
#X obj 1102 1312 s buffer1-right-p2;
#X obj 1314 1313 s buffer2-right-p2;
#X obj 1314 1223 s buffer2-left-p2;
#X obj 1102 989 r \$0-currentSelected-p2;
#X obj 1383 1081 r \$0-currentAngle-p2;
#X obj 1102 1174 makefilename r2-left-array%d;
#X obj 1314 1173 makefilename r2-left-array%d;
#X obj 1314 1263 makefilename r2-right-array%d;
#X obj 1102 1263 makefilename r2-right-array%d;
#X obj 1139 232 * -1;
#X obj 1139 175 change;
#X obj 1164 207 r polarity-azim;
#X obj 1139 150 r src2-yaw;
#X connect 0 0 18 0;
#X connect 0 0 22 1;
#X connect 0 0 23 1;
#X connect 0 0 80 0;
#X connect 1 0 0 0;
#X connect 2 0 3 0;
#X connect 3 0 7 0;
#X connect 3 1 6 0;
#X connect 4 0 1 0;
#X connect 5 0 1 0;
#X connect 6 0 5 0;
#X connect 7 0 4 0;
#X connect 8 0 9 0;
#X connect 9 0 7 1;
#X connect 9 0 6 1;
#X connect 10 0 77 0;
#X connect 11 0 13 0;
#X connect 12 0 14 0;
#X connect 13 0 15 0;
#X connect 14 0 16 0;
#X connect 15 0 30 0;
#X connect 16 0 31 0;
#X connect 17 0 2 0;
#X connect 17 0 66 0;
#X connect 17 1 79 0;
#X connect 18 0 19 0;
#X connect 18 1 19 1;
#X connect 19 0 21 1;
#X connect 19 0 20 1;
#X connect 20 0 24 0;
#X connect 21 0 25 0;
#X connect 22 0 24 1;
#X connect 23 0 25 1;
#X connect 24 0 69 0;
#X connect 25 0 70 0;
#X connect 28 0 88 0;
#X connect 29 0 85 0;
#X connect 30 0 91 0;
#X connect 30 0 94 0;
#X connect 31 0 92 0;
#X connect 31 0 93 0;
#X connect 32 0 86 0;
#X connect 33 0 87 0;
#X connect 34 0 73 0;
#X connect 34 0 74 0;
#X connect 34 0 75 0;
#X connect 34 0 76 0;
#X connect 35 0 73 0;
#X connect 35 0 74 0;
#X connect 35 0 75 0;
#X connect 35 0 76 0;
#X connect 36 0 37 0;
#X connect 36 1 39 0;
#X connect 37 0 17 0;
#X connect 38 0 37 1;
#X connect 39 0 38 0;
#X connect 40 0 39 1;
#X connect 41 0 42 0;
#X connect 42 0 73 0;
#X connect 42 0 74 0;
#X connect 42 0 75 0;
#X connect 42 0 76 0;
#X connect 43 0 67 0;
#X connect 44 0 68 0;
#X connect 45 0 54 0;
#X connect 46 0 56 0;
#X connect 47 0 48 0;
#X connect 48 0 46 0;
#X connect 50 0 57 0;
#X connect 55 0 34 1;
#X connect 58 0 65 0;
#X connect 59 0 41 1;
#X connect 60 0 35 0;
#X connect 61 0 63 0;
#X connect 64 0 8 0;
#X connect 65 0 41 0;
#X connect 69 0 26 0;
#X connect 70 0 27 0;
#X connect 71 0 69 1;
#X connect 71 0 70 1;
#X connect 73 0 20 0;
#X connect 73 1 34 0;
#X connect 74 0 21 0;
#X connect 75 0 22 0;
#X connect 76 0 23 0;
#X connect 77 0 61 0;
#X connect 81 0 76 0;
#X connect 82 0 75 0;
#X connect 83 0 74 0;
#X connect 84 0 73 0;
#X connect 89 0 11 0;
#X connect 89 0 12 0;
#X connect 90 0 30 1;
#X connect 90 0 31 1;
#X connect 91 0 29 0;
#X connect 92 0 28 0;
#X connect 93 0 33 0;
#X connect 94 0 32 0;
#X connect 95 0 36 0;
#X connect 96 0 95 0;
#X connect 97 0 95 1;
#X connect 98 0 96 0;
#X coords 0 -1 1 1 300 230 1 100 100;
#X restore 318 388 pd binaural-player.subpatch;
#N canvas 1613 179 1343 1306 file-loader.subpatch 0;
#X floatatom 228 135 8 0 0 0 - - - 0;
#X floatatom 228 165 8 0 0 0 - - - 0;
#X text 111 135 range (bipolar);
#X text 111 164 resolution;
#X listbox 228 193 10 0 0 0 - - - 0;
#X msg 461 1240 symbol ..done!;
#X obj 13 173 r done-msg;
#X text 111 193 status;
#X obj 461 613 until;
#X obj 461 636 f;
#X obj 491 636 + 1;
#X obj 586 775 list fromsymbol;
#X obj 586 821 list tosymbol;
#X obj 506 613 0;
#X msg 586 752 symbol array\$1;
#X obj 493 844 pack f f s, f 14;
#X obj 540 798 + 30;
#X obj 493 775 * 200;
#X obj 540 775 * 23;
#X obj 493 752 mod 3;
#X obj 540 752 div 3;
#X obj 107 484 s \$0-number-brirs;
#X obj 844 499 r \$0-number-brirs;
#X obj 461 1029 soundfiler;
#X obj 461 691 t f f f f;
#X obj 461 661 *;
#X obj 461 1061 t b;
#X obj 461 1087 f;
#X obj 510 1109 + 1;
#X floatatom 461 1139 5 0 0 0 - - - 0;
#X obj 139 461 s \$0-reset-counter;
#X obj 541 1003 r \$0-reset-counter;
#X obj 461 1167 %;
#X obj 461 1191 select 0 1;
#X obj 491 1061 1;
#X obj 249 353 t b f f;
#X obj 107 435 t f f;
#X obj 541 1029 t f b;
#X obj 107 411 expr ($f1 / $f2) * 2 + 1;
#X obj 107 369 t f f;
#X msg 493 867 obj \$1 \$2 array define \$3;
#X obj 461 1110 t a a;
#X obj 461 787 -;
#X obj 586 728 -;
#X obj 876 603 until;
#X obj 876 626 f;
#X obj 906 626 + 1;
#X msg 978 603 clear;
#X obj 1002 772 list fromsymbol;
#X obj 1002 818 list tosymbol;
#X obj 921 603 0;
#X obj 876 572 t f b b;
#X msg 1002 749 symbol array\$1;
#X obj 909 841 pack f f s, f 14;
#X obj 956 795 + 30;
#X obj 909 772 * 200;
#X obj 956 772 * 23;
#X obj 909 749 mod 3;
#X obj 956 749 div 3;
#X obj 876 1019 soundfiler;
#X obj 876 681 t f f f f;
#X obj 876 651 *;
#X obj 876 1053 t b;
#X obj 876 1079 f;
#X obj 925 1101 + 1;
#X floatatom 876 1131 5 0 0 0 - - - 0;
#X obj 957 993 r \$0-reset-counter;
#X obj 876 1159 %;
#X obj 876 1183 select 0 1;
#X obj 906 1053 1;
#X obj 957 1019 t f b;
#X msg 909 864 obj \$1 \$2 array define \$3;
#X obj 876 1102 t a a;
#X obj 876 766 -;
#X obj 1002 725 -;
#X obj 493 798 + 30;
#X obj 844 523 t f f;
#X obj 909 795 + 830;
#X obj 461 1265 s done-msg;
#X text 101 71 range currently two-dimensional (azimuth);
#X obj 107 344 r angular-range;
#X obj 249 329 r angular-resolution;
#X obj 461 575 t f b;
#X obj 228 14 loadbang;
#X msg 228 39 symbol empty..;
#X obj 978 626 s pd-\$0-arrays-r2;
#X obj 909 887 s pd-\$0-arrays-r2;
#X obj 493 890 s pd-\$0-arrays-r2;
#N canvas 153 177 1387 720 \$0-arrays-r2 0;
#X obj 830 30 array define r2-right-array-60;
#X obj 1230 30 array define r2-right-array-58;
#X obj 1030 53 array define r2-right-array-56;
#X obj 830 76 array define r2-right-array-54;
#X obj 1230 76 array define r2-right-array-52;
#X obj 1030 99 array define r2-right-array-50;
#X obj 830 122 array define r2-right-array-48;
#X obj 1230 122 array define r2-right-array-46;
#X obj 1030 145 array define r2-right-array-44;
#X obj 830 168 array define r2-right-array-42;
#X obj 1230 168 array define r2-right-array-40;
#X obj 1030 191 array define r2-right-array-38;
#X obj 830 214 array define r2-right-array-36;
#X obj 1230 214 array define r2-right-array-34;
#X obj 1030 237 array define r2-right-array-32;
#X obj 830 260 array define r2-right-array-30;
#X obj 1230 260 array define r2-right-array-28;
#X obj 1030 283 array define r2-right-array-26;
#X obj 830 306 array define r2-right-array-24;
#X obj 1230 306 array define r2-right-array-22;
#X obj 1030 329 array define r2-right-array-20;
#X obj 830 352 array define r2-right-array-18;
#X obj 1230 352 array define r2-right-array-16;
#X obj 1030 375 array define r2-right-array-14;
#X obj 830 398 array define r2-right-array-12;
#X obj 1230 398 array define r2-right-array-10;
#X obj 1030 421 array define r2-right-array-8;
#X obj 830 444 array define r2-right-array-6;
#X obj 1230 444 array define r2-right-array-4;
#X obj 1030 467 array define r2-right-array-2;
#X obj 830 490 array define r2-right-array0;
#X obj 1230 490 array define r2-right-array2;
#X obj 1030 513 array define r2-right-array4;
#X obj 830 536 array define r2-right-array6;
#X obj 1230 536 array define r2-right-array8;
#X obj 1030 559 array define r2-right-array10;
#X obj 830 582 array define r2-right-array12;
#X obj 1230 582 array define r2-right-array14;
#X obj 1030 605 array define r2-right-array16;
#X obj 830 628 array define r2-right-array18;
#X obj 1230 628 array define r2-right-array20;
#X obj 1030 651 array define r2-right-array22;
#X obj 830 674 array define r2-right-array24;
#X obj 1230 674 array define r2-right-array26;
#X obj 1030 697 array define r2-right-array28;
#X obj 830 720 array define r2-right-array30;
#X obj 1230 720 array define r2-right-array32;
#X obj 1030 743 array define r2-right-array34;
#X obj 830 766 array define r2-right-array36;
#X obj 1230 766 array define r2-right-array38;
#X obj 1030 789 array define r2-right-array40;
#X obj 830 812 array define r2-right-array42;
#X obj 1230 812 array define r2-right-array44;
#X obj 1030 835 array define r2-right-array46;
#X obj 830 858 array define r2-right-array48;
#X obj 1230 858 array define r2-right-array50;
#X obj 1030 881 array define r2-right-array52;
#X obj 830 904 array define r2-right-array54;
#X obj 1230 904 array define r2-right-array56;
#X obj 1030 927 array define r2-right-array58;
#X obj 830 950 array define r2-right-array60;
#X obj 30 30 array define r2-left-array-60;
#X obj 430 30 array define r2-left-array-58;
#X obj 230 53 array define r2-left-array-56;
#X obj 30 76 array define r2-left-array-54;
#X obj 430 76 array define r2-left-array-52;
#X obj 230 99 array define r2-left-array-50;
#X obj 30 122 array define r2-left-array-48;
#X obj 430 122 array define r2-left-array-46;
#X obj 230 145 array define r2-left-array-44;
#X obj 30 168 array define r2-left-array-42;
#X obj 430 168 array define r2-left-array-40;
#X obj 230 191 array define r2-left-array-38;
#X obj 30 214 array define r2-left-array-36;
#X obj 430 214 array define r2-left-array-34;
#X obj 230 237 array define r2-left-array-32;
#X obj 30 260 array define r2-left-array-30;
#X obj 430 260 array define r2-left-array-28;
#X obj 230 283 array define r2-left-array-26;
#X obj 30 306 array define r2-left-array-24;
#X obj 430 306 array define r2-left-array-22;
#X obj 230 329 array define r2-left-array-20;
#X obj 30 352 array define r2-left-array-18;
#X obj 430 352 array define r2-left-array-16;
#X obj 230 375 array define r2-left-array-14;
#X obj 30 398 array define r2-left-array-12;
#X obj 430 398 array define r2-left-array-10;
#X obj 230 421 array define r2-left-array-8;
#X obj 30 444 array define r2-left-array-6;
#X obj 430 444 array define r2-left-array-4;
#X obj 230 467 array define r2-left-array-2;
#X obj 30 490 array define r2-left-array0;
#X obj 430 490 array define r2-left-array2;
#X obj 230 513 array define r2-left-array4;
#X obj 30 536 array define r2-left-array6;
#X obj 430 536 array define r2-left-array8;
#X obj 230 559 array define r2-left-array10;
#X obj 30 582 array define r2-left-array12;
#X obj 430 582 array define r2-left-array14;
#X obj 230 605 array define r2-left-array16;
#X obj 30 628 array define r2-left-array18;
#X obj 430 628 array define r2-left-array20;
#X obj 230 651 array define r2-left-array22;
#X obj 30 674 array define r2-left-array24;
#X obj 430 674 array define r2-left-array26;
#X obj 230 697 array define r2-left-array28;
#X obj 30 720 array define r2-left-array30;
#X obj 430 720 array define r2-left-array32;
#X obj 230 743 array define r2-left-array34;
#X obj 30 766 array define r2-left-array36;
#X obj 430 766 array define r2-left-array38;
#X obj 230 789 array define r2-left-array40;
#X obj 30 812 array define r2-left-array42;
#X obj 430 812 array define r2-left-array44;
#X obj 230 835 array define r2-left-array46;
#X obj 30 858 array define r2-left-array48;
#X obj 430 858 array define r2-left-array50;
#X obj 230 881 array define r2-left-array52;
#X obj 30 904 array define r2-left-array54;
#X obj 430 904 array define r2-left-array56;
#X obj 230 927 array define r2-left-array58;
#X obj 30 950 array define r2-left-array60;
#X restore 10 11 pd \$0-arrays-r2;
#X msg 876 917 read -resize ../resources/convolved/convolved_R2_\$1azim_0elev_right.wav
r2-right-array\$1, f 31;
#X msg 461 923 read -resize ../resources/convolved/convolved_R2_\$1azim_0elev_left.wav
r2-left-array\$1, f 31;
#X obj 1002 795 list prepend 114 50 45 114 105 103 104 116 45;
#X obj 586 798 list prepend 114 50 45 108 101 102 116 45;
#X text 342 102 player2;
#X obj 413 184 change;
#X obj 413 209 s angular-resolution;
#X obj 471 154 change;
#X obj 471 179 s angular-range;
#X obj 629 115 r angular-range;
#X obj 629 145 r angular-resolution;
#X connect 0 0 96 0;
#X connect 1 0 94 0;
#X connect 5 0 78 0;
#X connect 6 0 4 0;
#X connect 8 0 9 0;
#X connect 9 0 10 0;
#X connect 9 0 25 0;
#X connect 10 0 9 1;
#X connect 11 0 92 0;
#X connect 12 0 15 2;
#X connect 13 0 9 1;
#X connect 14 0 11 0;
#X connect 15 0 40 0;
#X connect 16 0 15 1;
#X connect 17 0 75 0;
#X connect 18 0 16 0;
#X connect 19 0 17 0;
#X connect 20 0 18 0;
#X connect 22 0 76 0;
#X connect 23 0 26 0;
#X connect 24 0 42 0;
#X connect 24 1 19 0;
#X connect 24 2 20 0;
#X connect 24 3 43 0;
#X connect 25 0 24 0;
#X connect 26 0 27 0;
#X connect 27 0 41 0;
#X connect 28 0 27 1;
#X connect 29 0 32 0;
#X connect 31 0 37 0;
#X connect 32 0 33 0;
#X connect 33 0 5 0;
#X connect 34 0 27 1;
#X connect 35 0 38 0;
#X connect 35 1 38 1;
#X connect 35 2 25 1;
#X connect 35 2 61 1;
#X connect 36 0 21 0;
#X connect 36 1 30 0;
#X connect 37 0 32 1;
#X connect 37 1 34 0;
#X connect 38 0 36 0;
#X connect 39 0 38 0;
#X connect 39 1 42 1;
#X connect 39 1 43 1;
#X connect 39 1 73 1;
#X connect 39 1 74 1;
#X connect 40 0 87 0;
#X connect 41 0 29 0;
#X connect 41 1 28 0;
#X connect 42 0 90 0;
#X connect 43 0 14 0;
#X connect 44 0 45 0;
#X connect 45 0 46 0;
#X connect 45 0 61 0;
#X connect 46 0 45 1;
#X connect 47 0 85 0;
#X connect 48 0 91 0;
#X connect 49 0 53 2;
#X connect 50 0 45 1;
#X connect 51 0 44 0;
#X connect 51 1 50 0;
#X connect 51 2 47 0;
#X connect 52 0 48 0;
#X connect 53 0 71 0;
#X connect 54 0 53 1;
#X connect 55 0 77 0;
#X connect 56 0 54 0;
#X connect 57 0 55 0;
#X connect 58 0 56 0;
#X connect 59 0 62 0;
#X connect 60 0 73 0;
#X connect 60 1 57 0;
#X connect 60 2 58 0;
#X connect 60 3 74 0;
#X connect 61 0 60 0;
#X connect 62 0 63 0;
#X connect 63 0 72 0;
#X connect 64 0 63 1;
#X connect 65 0 67 0;
#X connect 66 0 70 0;
#X connect 67 0 68 0;
#X connect 68 0 5 0;
#X connect 69 0 63 1;
#X connect 70 0 67 1;
#X connect 70 1 69 0;
#X connect 71 0 86 0;
#X connect 72 0 65 0;
#X connect 72 1 64 0;
#X connect 73 0 89 0;
#X connect 74 0 52 0;
#X connect 75 0 15 0;
#X connect 76 0 82 0;
#X connect 76 1 51 0;
#X connect 77 0 53 0;
#X connect 80 0 39 0;
#X connect 81 0 35 0;
#X connect 82 0 8 0;
#X connect 82 1 13 0;
#X connect 83 0 84 0;
#X connect 84 0 4 0;
#X connect 89 0 59 0;
#X connect 90 0 23 0;
#X connect 91 0 49 0;
#X connect 92 0 12 0;
#X connect 94 0 95 0;
#X connect 96 0 97 0;
#X connect 98 0 0 0;
#X connect 99 0 1 0;
#X coords 0 -1 1 1 300 130 1 100 100;
#X restore 318 121 pd file-loader.subpatch;
#X obj 318 622 dac~ 3 4, f 42;
#N canvas 1613 179 1343 1306 file-loader.subpatch 0;
#X floatatom 228 135 8 0 0 0 - - - 0;
#X floatatom 228 165 8 0 0 0 - - - 0;
#X text 111 135 range (bipolar);
#X text 111 164 resolution;
#X listbox 228 193 10 0 0 0 - - - 0;
#X msg 461 1240 symbol ..done!;
#X obj 13 173 r done-msg;
#X text 111 193 status;
#X obj 461 613 until;
#X obj 461 636 f;
#X obj 491 636 + 1;
#X obj 586 775 list fromsymbol;
#X obj 586 821 list tosymbol;
#X obj 506 613 0;
#X msg 586 752 symbol array\$1;
#X obj 493 844 pack f f s, f 14;
#X obj 540 798 + 30;
#X obj 493 775 * 200;
#X obj 540 775 * 23;
#X obj 493 752 mod 3;
#X obj 540 752 div 3;
#X obj 107 484 s \$0-number-brirs;
#X obj 844 499 r \$0-number-brirs;
#X obj 461 1029 soundfiler;
#X obj 461 691 t f f f f;
#X obj 461 661 *;
#X obj 461 1061 t b;
#X obj 461 1087 f;
#X obj 510 1109 + 1;
#X floatatom 461 1139 5 0 0 0 - - - 0;
#X obj 139 461 s \$0-reset-counter;
#X obj 541 1003 r \$0-reset-counter;
#X obj 461 1167 %;
#X obj 461 1191 select 0 1;
#X obj 491 1061 1;
#X obj 249 353 t b f f;
#X obj 107 435 t f f;
#X obj 541 1029 t f b;
#X obj 107 411 expr ($f1 / $f2) * 2 + 1;
#X obj 107 369 t f f;
#X msg 493 867 obj \$1 \$2 array define \$3;
#X obj 461 1110 t a a;
#X obj 461 787 -;
#X obj 586 728 -;
#X obj 876 603 until;
#X obj 876 626 f;
#X obj 906 626 + 1;
#X msg 978 603 clear;
#X obj 1002 772 list fromsymbol;
#X obj 1002 818 list tosymbol;
#X obj 921 603 0;
#X obj 876 572 t f b b;
#X msg 1002 749 symbol array\$1;
#X obj 909 841 pack f f s, f 14;
#X obj 956 795 + 30;
#X obj 909 772 * 200;
#X obj 956 772 * 23;
#X obj 909 749 mod 3;
#X obj 956 749 div 3;
#X obj 876 1019 soundfiler;
#X obj 876 681 t f f f f;
#X obj 876 651 *;
#X obj 876 1053 t b;
#X obj 876 1079 f;
#X obj 925 1101 + 1;
#X floatatom 876 1131 5 0 0 0 - - - 0;
#X obj 957 993 r \$0-reset-counter;
#X obj 876 1159 %;
#X obj 876 1183 select 0 1;
#X obj 906 1053 1;
#X obj 957 1019 t f b;
#X msg 909 864 obj \$1 \$2 array define \$3;
#X obj 876 1102 t a a;
#X obj 876 766 -;
#X obj 1002 725 -;
#X obj 493 798 + 30;
#X obj 844 523 t f f;
#X obj 909 795 + 830;
#X obj 461 1265 s done-msg;
#X text 101 71 range currently two-dimensional (azimuth);
#X obj 107 344 r angular-range;
#X obj 249 329 r angular-resolution;
#X obj 461 575 t f b;
#X obj 228 14 loadbang;
#X msg 228 39 symbol empty..;
#N canvas 153 177 1387 720 \$0-arrays-r3 0;
#X obj 830 30 array define r3-right-array-60;
#X obj 1230 30 array define r3-right-array-58;
#X obj 1030 53 array define r3-right-array-56;
#X obj 830 76 array define r3-right-array-54;
#X obj 1230 76 array define r3-right-array-52;
#X obj 1030 99 array define r3-right-array-50;
#X obj 830 122 array define r3-right-array-48;
#X obj 1230 122 array define r3-right-array-46;
#X obj 1030 145 array define r3-right-array-44;
#X obj 830 168 array define r3-right-array-42;
#X obj 1230 168 array define r3-right-array-40;
#X obj 1030 191 array define r3-right-array-38;
#X obj 830 214 array define r3-right-array-36;
#X obj 1230 214 array define r3-right-array-34;
#X obj 1030 237 array define r3-right-array-32;
#X obj 830 260 array define r3-right-array-30;
#X obj 1230 260 array define r3-right-array-28;
#X obj 1030 283 array define r3-right-array-26;
#X obj 830 306 array define r3-right-array-24;
#X obj 1230 306 array define r3-right-array-22;
#X obj 1030 329 array define r3-right-array-20;
#X obj 830 352 array define r3-right-array-18;
#X obj 1230 352 array define r3-right-array-16;
#X obj 1030 375 array define r3-right-array-14;
#X obj 830 398 array define r3-right-array-12;
#X obj 1230 398 array define r3-right-array-10;
#X obj 1030 421 array define r3-right-array-8;
#X obj 830 444 array define r3-right-array-6;
#X obj 1230 444 array define r3-right-array-4;
#X obj 1030 467 array define r3-right-array-2;
#X obj 830 490 array define r3-right-array0;
#X obj 1230 490 array define r3-right-array2;
#X obj 1030 513 array define r3-right-array4;
#X obj 830 536 array define r3-right-array6;
#X obj 1230 536 array define r3-right-array8;
#X obj 1030 559 array define r3-right-array10;
#X obj 830 582 array define r3-right-array12;
#X obj 1230 582 array define r3-right-array14;
#X obj 1030 605 array define r3-right-array16;
#X obj 830 628 array define r3-right-array18;
#X obj 1230 628 array define r3-right-array20;
#X obj 1030 651 array define r3-right-array22;
#X obj 830 674 array define r3-right-array24;
#X obj 1230 674 array define r3-right-array26;
#X obj 1030 697 array define r3-right-array28;
#X obj 830 720 array define r3-right-array30;
#X obj 1230 720 array define r3-right-array32;
#X obj 1030 743 array define r3-right-array34;
#X obj 830 766 array define r3-right-array36;
#X obj 1230 766 array define r3-right-array38;
#X obj 1030 789 array define r3-right-array40;
#X obj 830 812 array define r3-right-array42;
#X obj 1230 812 array define r3-right-array44;
#X obj 1030 835 array define r3-right-array46;
#X obj 830 858 array define r3-right-array48;
#X obj 1230 858 array define r3-right-array50;
#X obj 1030 881 array define r3-right-array52;
#X obj 830 904 array define r3-right-array54;
#X obj 1230 904 array define r3-right-array56;
#X obj 1030 927 array define r3-right-array58;
#X obj 830 950 array define r3-right-array60;
#X obj 30 30 array define r3-left-array-60;
#X obj 430 30 array define r3-left-array-58;
#X obj 230 53 array define r3-left-array-56;
#X obj 30 76 array define r3-left-array-54;
#X obj 430 76 array define r3-left-array-52;
#X obj 230 99 array define r3-left-array-50;
#X obj 30 122 array define r3-left-array-48;
#X obj 430 122 array define r3-left-array-46;
#X obj 230 145 array define r3-left-array-44;
#X obj 30 168 array define r3-left-array-42;
#X obj 430 168 array define r3-left-array-40;
#X obj 230 191 array define r3-left-array-38;
#X obj 30 214 array define r3-left-array-36;
#X obj 430 214 array define r3-left-array-34;
#X obj 230 237 array define r3-left-array-32;
#X obj 30 260 array define r3-left-array-30;
#X obj 430 260 array define r3-left-array-28;
#X obj 230 283 array define r3-left-array-26;
#X obj 30 306 array define r3-left-array-24;
#X obj 430 306 array define r3-left-array-22;
#X obj 230 329 array define r3-left-array-20;
#X obj 30 352 array define r3-left-array-18;
#X obj 430 352 array define r3-left-array-16;
#X obj 230 375 array define r3-left-array-14;
#X obj 30 398 array define r3-left-array-12;
#X obj 430 398 array define r3-left-array-10;
#X obj 230 421 array define r3-left-array-8;
#X obj 30 444 array define r3-left-array-6;
#X obj 430 444 array define r3-left-array-4;
#X obj 230 467 array define r3-left-array-2;
#X obj 30 490 array define r3-left-array0;
#X obj 430 490 array define r3-left-array2;
#X obj 230 513 array define r3-left-array4;
#X obj 30 536 array define r3-left-array6;
#X obj 430 536 array define r3-left-array8;
#X obj 230 559 array define r3-left-array10;
#X obj 30 582 array define r3-left-array12;
#X obj 430 582 array define r3-left-array14;
#X obj 230 605 array define r3-left-array16;
#X obj 30 628 array define r3-left-array18;
#X obj 430 628 array define r3-left-array20;
#X obj 230 651 array define r3-left-array22;
#X obj 30 674 array define r3-left-array24;
#X obj 430 674 array define r3-left-array26;
#X obj 230 697 array define r3-left-array28;
#X obj 30 720 array define r3-left-array30;
#X obj 430 720 array define r3-left-array32;
#X obj 230 743 array define r3-left-array34;
#X obj 30 766 array define r3-left-array36;
#X obj 430 766 array define r3-left-array38;
#X obj 230 789 array define r3-left-array40;
#X obj 30 812 array define r3-left-array42;
#X obj 430 812 array define r3-left-array44;
#X obj 230 835 array define r3-left-array46;
#X obj 30 858 array define r3-left-array48;
#X obj 430 858 array define r3-left-array50;
#X obj 230 881 array define r3-left-array52;
#X obj 30 904 array define r3-left-array54;
#X obj 430 904 array define r3-left-array56;
#X obj 230 927 array define r3-left-array58;
#X obj 30 950 array define r3-left-array60;
#X restore 10 11 pd \$0-arrays-r3;
#X obj 978 626 s pd-\$0-arrays-r3;
#X obj 909 887 s pd-\$0-arrays-r3;
#X obj 493 890 s pd-\$0-arrays-r3;
#X msg 461 923 read -resize ../resources/convolved/convolved_R3_\$1azim_0elev_left.wav
r3-left-array\$1, f 31;
#X msg 876 917 read -resize ../resources/convolved/convolved_R3_\$1azim_0elev_right.wav
r3-right-array\$1, f 31;
#X obj 586 798 list prepend 114 51 45 108 101 102 116 45;
#X obj 1002 795 list prepend 114 51 45 114 105 103 104 116 45;
#X text 342 102 player3;
#X obj 413 184 change;
#X obj 413 209 s angular-resolution;
#X obj 471 154 change;
#X obj 471 179 s angular-range;
#X obj 629 115 r angular-range;
#X obj 629 145 r angular-resolution;
#X connect 0 0 96 0;
#X connect 1 0 94 0;
#X connect 5 0 78 0;
#X connect 6 0 4 0;
#X connect 8 0 9 0;
#X connect 9 0 10 0;
#X connect 9 0 25 0;
#X connect 10 0 9 1;
#X connect 11 0 91 0;
#X connect 12 0 15 2;
#X connect 13 0 9 1;
#X connect 14 0 11 0;
#X connect 15 0 40 0;
#X connect 16 0 15 1;
#X connect 17 0 75 0;
#X connect 18 0 16 0;
#X connect 19 0 17 0;
#X connect 20 0 18 0;
#X connect 22 0 76 0;
#X connect 23 0 26 0;
#X connect 24 0 42 0;
#X connect 24 1 19 0;
#X connect 24 2 20 0;
#X connect 24 3 43 0;
#X connect 25 0 24 0;
#X connect 26 0 27 0;
#X connect 27 0 41 0;
#X connect 28 0 27 1;
#X connect 29 0 32 0;
#X connect 31 0 37 0;
#X connect 32 0 33 0;
#X connect 33 0 5 0;
#X connect 34 0 27 1;
#X connect 35 0 38 0;
#X connect 35 1 38 1;
#X connect 35 2 25 1;
#X connect 35 2 61 1;
#X connect 36 0 21 0;
#X connect 36 1 30 0;
#X connect 37 0 32 1;
#X connect 37 1 34 0;
#X connect 38 0 36 0;
#X connect 39 0 38 0;
#X connect 39 1 42 1;
#X connect 39 1 43 1;
#X connect 39 1 73 1;
#X connect 39 1 74 1;
#X connect 40 0 88 0;
#X connect 41 0 29 0;
#X connect 41 1 28 0;
#X connect 42 0 89 0;
#X connect 43 0 14 0;
#X connect 44 0 45 0;
#X connect 45 0 46 0;
#X connect 45 0 61 0;
#X connect 46 0 45 1;
#X connect 47 0 86 0;
#X connect 48 0 92 0;
#X connect 49 0 53 2;
#X connect 50 0 45 1;
#X connect 51 0 44 0;
#X connect 51 1 50 0;
#X connect 51 2 47 0;
#X connect 52 0 48 0;
#X connect 53 0 71 0;
#X connect 54 0 53 1;
#X connect 55 0 77 0;
#X connect 56 0 54 0;
#X connect 57 0 55 0;
#X connect 58 0 56 0;
#X connect 59 0 62 0;
#X connect 60 0 73 0;
#X connect 60 1 57 0;
#X connect 60 2 58 0;
#X connect 60 3 74 0;
#X connect 61 0 60 0;
#X connect 62 0 63 0;
#X connect 63 0 72 0;
#X connect 64 0 63 1;
#X connect 65 0 67 0;
#X connect 66 0 70 0;
#X connect 67 0 68 0;
#X connect 68 0 5 0;
#X connect 69 0 63 1;
#X connect 70 0 67 1;
#X connect 70 1 69 0;
#X connect 71 0 87 0;
#X connect 72 0 65 0;
#X connect 72 1 64 0;
#X connect 73 0 90 0;
#X connect 74 0 52 0;
#X connect 75 0 15 0;
#X connect 76 0 82 0;
#X connect 76 1 51 0;
#X connect 77 0 53 0;
#X connect 80 0 39 0;
#X connect 81 0 35 0;
#X connect 82 0 8 0;
#X connect 82 1 13 0;
#X connect 83 0 84 0;
#X connect 84 0 4 0;
#X connect 89 0 23 0;
#X connect 90 0 59 0;
#X connect 91 0 12 0;
#X connect 92 0 49 0;
#X connect 94 0 95 0;
#X connect 96 0 97 0;
#X connect 98 0 0 0;
#X connect 99 0 1 0;
#X coords 0 -1 1 1 300 130 1 100 100;
#X restore 625 121 pd file-loader.subpatch;
#N canvas 70 27 1850 984 binaural-player.subpatch 0;
#X obj 1142 557 hsl 162 19 0 1 0 0 empty empty empty -2 -10 0 12 #fcfcfc
#000000 #000000 0 1;
#X obj 1139 531 line, f 18;
#X obj 1139 396 tgl 19 0 empty empty empty 0 -10 0 12 #fcfcfc #000000
#000000 0 1;
#X obj 1139 421 select 0 1, f 18;
#X msg 1139 494 0 \$1;
#X msg 1200 494 1 \$1;
#X obj 1200 468 f 5.3;
#X obj 1139 467 f 5.3;
#X obj 956 408 * 1000;
#X obj 956 431 / 48000;
#X obj 219 338 loadbang;
#X obj 1102 1031 == 0;
#X obj 1314 1031 == 1;
#X obj 1102 1056 change 0;
#X obj 1314 1055 change 0;
#X obj 1102 1081 select 1;
#X obj 1314 1080 select 1;
#X obj 1139 361 t b f, f 10;
#X obj 544 658 swap 1;
#X obj 544 682 -, f 6;
#X obj 388 716 *~;
#X obj 526 716 *~;
#X obj 701 713 *~;
#X obj 835 714 *~;
#X obj 387 763 +~;
#X obj 526 762 +~;
#X obj 387 833 outlet~;
#X obj 526 832 outlet~;
#X msg 1314 1198 set \$1;
#X msg 1102 1201 set \$1;
#X obj 1102 1143 f;
#X obj 1314 1142 f;
#X msg 1102 1287 set \$1;
#X msg 1314 1288 set \$1;
#X obj 504 619 spigot;
#X msg 31 551 stop;
#X obj 1139 258 t f f, f 6;
#X obj 1139 336 spigot;
#X obj 1178 309 == 0;
#X obj 1178 284 mod 1;
#X obj 1210 258 r angular-resolution;
#X obj 181 525 list append, f 12;
#X obj 181 551 list trim;
#X obj 219 158 bng 20 250 50 0 empty empty empty 17 7 0 10 #c6ffc7
#000000 #000000;
#X floatatom 219 186 12 0 0 0 - - - 0;
#X obj 219 210 tgl 20 0 empty empty empty 17 7 0 10 #fcfcfc #000000
#000000 0 1;
#X obj 222 241 hsl 128 15 0 1 0 0 empty empty empty -2 -8 0 10 #ffe3c6
#000000 #000000 0 1;
#X obj 25 196 loadbang;
#X obj 25 221 f 0;
#X text 107 157 sart | stop;
#X obj 253 158 bng 20 250 50 0 empty empty empty 17 7 0 10 #ffc7c6
#000000 #000000;
#X text 108 183 start sample;
#X text 108 239 volume;
#X text 108 210 loop;
#X obj 449 230 s \$0-loop-binPlayer;
#X obj 543 595 r \$0-loop-binPlayer;
#X obj 449 256 s \$0-volume-binPlayer;
#X obj 599 178 s \$0-stop-binPlayer;
#X obj 181 476 r \$0-start-binPlayer;
#X obj 332 476 r \$0-start-time-binPlayer;
#X obj 31 526 r \$0-stop-binPlayer;
#X floatatom 219 267 12 0 0 0 - - - 0;
#X text 108 264 sample overlap;
#X obj 449 286 s \$0-blend-binPlayer;
#X obj 956 382 r \$0-blend-binPlayer;
#X msg 181 501 bang;
#X obj 220 303 bng 15 250 50 0 empty empty empty 17 7 0 10 #ffffff
#c6feff #ff0400;
#X obj 449 178 s \$0-start-binPlayer;
#X obj 449 205 s \$0-start-time-binPlayer;
#X obj 387 807 *~;
#X obj 526 806 *~;
#X obj 629 770 r \$0-volume-binPlayer;
#X text 108 300 osc receive;
#X obj 388 571 tabplay~ default1;
#X obj 525 571 tabplay~ default1;
#X obj 700 571 tabplay~ default1;
#X obj 834 571 tabplay~ default1;
#X obj 219 362 f 128;
#X text 345 100 player3;
#X obj 388 545 r buffer1-left-p3;
#X obj 525 544 r buffer1-right-p3;
#X obj 700 543 r buffer2-left-p3;
#X obj 834 543 r buffer2-right-p3;
#X obj 1139 585 s \$0-currentSelected-p3;
#X obj 1206 388 s \$0-currentAngle-p3;
#X obj 1102 989 r \$0-currentSelected-p3;
#X obj 1383 1081 r \$0-currentAngle-p3;
#X obj 1314 1173 makefilename r3-left-array%d;
#X obj 1314 1223 s buffer2-left-p3;
#X obj 1314 1263 makefilename r3-right-array%d;
#X obj 1314 1313 s buffer2-right-p3;
#X obj 1102 1312 s buffer1-right-p3;
#X obj 1102 1263 makefilename r3-right-array%d;
#X obj 1102 1226 s buffer1-left-p3;
#X obj 1103 1173 makefilename r3-left-array%d;
#X obj 1139 232 * -1;
#X obj 1139 175 change;
#X obj 1164 207 r polarity-azim;
#X obj 1139 150 r src3-yaw;
#X connect 0 0 18 0;
#X connect 0 0 22 1;
#X connect 0 0 23 1;
#X connect 0 0 83 0;
#X connect 1 0 0 0;
#X connect 2 0 3 0;
#X connect 3 0 7 0;
#X connect 3 1 6 0;
#X connect 4 0 1 0;
#X connect 5 0 1 0;
#X connect 6 0 5 0;
#X connect 7 0 4 0;
#X connect 8 0 9 0;
#X connect 9 0 7 1;
#X connect 9 0 6 1;
#X connect 10 0 77 0;
#X connect 11 0 13 0;
#X connect 12 0 14 0;
#X connect 13 0 15 0;
#X connect 14 0 16 0;
#X connect 15 0 30 0;
#X connect 16 0 31 0;
#X connect 17 0 2 0;
#X connect 17 0 66 0;
#X connect 17 1 84 0;
#X connect 18 0 19 0;
#X connect 18 1 19 1;
#X connect 19 0 21 1;
#X connect 19 0 20 1;
#X connect 20 0 24 0;
#X connect 21 0 25 0;
#X connect 22 0 24 1;
#X connect 23 0 25 1;
#X connect 24 0 69 0;
#X connect 25 0 70 0;
#X connect 28 0 88 0;
#X connect 29 0 93 0;
#X connect 30 0 92 0;
#X connect 30 0 94 0;
#X connect 31 0 87 0;
#X connect 31 0 89 0;
#X connect 32 0 91 0;
#X connect 33 0 90 0;
#X connect 34 0 73 0;
#X connect 34 0 74 0;
#X connect 34 0 75 0;
#X connect 34 0 76 0;
#X connect 35 0 73 0;
#X connect 35 0 74 0;
#X connect 35 0 75 0;
#X connect 35 0 76 0;
#X connect 36 0 37 0;
#X connect 36 1 39 0;
#X connect 37 0 17 0;
#X connect 38 0 37 1;
#X connect 39 0 38 0;
#X connect 40 0 39 1;
#X connect 41 0 42 0;
#X connect 42 0 73 0;
#X connect 42 0 74 0;
#X connect 42 0 75 0;
#X connect 42 0 76 0;
#X connect 43 0 67 0;
#X connect 44 0 68 0;
#X connect 45 0 54 0;
#X connect 46 0 56 0;
#X connect 47 0 48 0;
#X connect 48 0 46 0;
#X connect 50 0 57 0;
#X connect 55 0 34 1;
#X connect 58 0 65 0;
#X connect 59 0 41 1;
#X connect 60 0 35 0;
#X connect 61 0 63 0;
#X connect 64 0 8 0;
#X connect 65 0 41 0;
#X connect 69 0 26 0;
#X connect 70 0 27 0;
#X connect 71 0 69 1;
#X connect 71 0 70 1;
#X connect 73 0 20 0;
#X connect 73 1 34 0;
#X connect 74 0 21 0;
#X connect 75 0 22 0;
#X connect 76 0 23 0;
#X connect 77 0 61 0;
#X connect 79 0 73 0;
#X connect 80 0 74 0;
#X connect 81 0 75 0;
#X connect 82 0 76 0;
#X connect 85 0 11 0;
#X connect 85 0 12 0;
#X connect 86 0 30 1;
#X connect 86 0 31 1;
#X connect 87 0 28 0;
#X connect 89 0 33 0;
#X connect 92 0 32 0;
#X connect 94 0 29 0;
#X connect 95 0 36 0;
#X connect 96 0 95 0;
#X connect 97 0 95 1;
#X connect 98 0 96 0;
#X coords 0 -1 1 1 300 230 1 100 100;
#X restore 625 388 pd binaural-player.subpatch;
#X obj 626 622 dac~ 5 6, f 42;
#N canvas 1613 179 1343 1306 file-loader.subpatch 0;
#X floatatom 228 135 8 0 0 0 - - - 0;
#X floatatom 228 165 8 0 0 0 - - - 0;
#X text 111 135 range (bipolar);
#X text 111 164 resolution;
#X listbox 228 193 10 0 0 0 - - - 0;
#X msg 461 1240 symbol ..done!;
#X obj 13 173 r done-msg;
#X text 111 193 status;
#X obj 461 613 until;
#X obj 461 636 f;
#X obj 491 636 + 1;
#X obj 586 775 list fromsymbol;
#X obj 586 821 list tosymbol;
#X obj 506 613 0;
#X msg 586 752 symbol array\$1;
#X obj 493 844 pack f f s, f 14;
#X obj 540 798 + 30;
#X obj 493 775 * 200;
#X obj 540 775 * 23;
#X obj 493 752 mod 3;
#X obj 540 752 div 3;
#X obj 107 484 s \$0-number-brirs;
#X obj 844 499 r \$0-number-brirs;
#X obj 461 1029 soundfiler;
#X obj 461 691 t f f f f;
#X obj 461 661 *;
#X obj 461 1061 t b;
#X obj 461 1087 f;
#X obj 510 1109 + 1;
#X floatatom 461 1139 5 0 0 0 - - - 0;
#X obj 139 461 s \$0-reset-counter;
#X obj 541 1003 r \$0-reset-counter;
#X obj 461 1167 %;
#X obj 461 1191 select 0 1;
#X obj 491 1061 1;
#X obj 249 353 t b f f;
#X obj 107 435 t f f;
#X obj 541 1029 t f b;
#X obj 107 411 expr ($f1 / $f2) * 2 + 1;
#X obj 107 369 t f f;
#X msg 493 867 obj \$1 \$2 array define \$3;
#X obj 461 1110 t a a;
#X obj 461 787 -;
#X obj 586 728 -;
#X obj 876 603 until;
#X obj 876 626 f;
#X obj 906 626 + 1;
#X msg 978 603 clear;
#X obj 1002 772 list fromsymbol;
#X obj 1002 818 list tosymbol;
#X obj 921 603 0;
#X obj 876 572 t f b b;
#X msg 1002 749 symbol array\$1;
#X obj 909 841 pack f f s, f 14;
#X obj 956 795 + 30;
#X obj 909 772 * 200;
#X obj 956 772 * 23;
#X obj 909 749 mod 3;
#X obj 956 749 div 3;
#X obj 876 1019 soundfiler;
#X obj 876 681 t f f f f;
#X obj 876 651 *;
#X obj 876 1053 t b;
#X obj 876 1079 f;
#X obj 925 1101 + 1;
#X floatatom 876 1131 5 0 0 0 - - - 0;
#X obj 957 993 r \$0-reset-counter;
#X obj 876 1159 %;
#X obj 876 1183 select 0 1;
#X obj 906 1053 1;
#X obj 957 1019 t f b;
#X msg 909 864 obj \$1 \$2 array define \$3;
#X obj 876 1102 t a a;
#X obj 876 766 -;
#X obj 1002 725 -;
#X obj 493 798 + 30;
#X obj 844 523 t f f;
#X obj 909 795 + 830;
#X obj 461 1265 s done-msg;
#X text 101 71 range currently two-dimensional (azimuth);
#X obj 107 344 r angular-range;
#X obj 249 329 r angular-resolution;
#X obj 461 575 t f b;
#X obj 228 14 loadbang;
#X msg 228 39 symbol empty..;
#X text 342 102 player4;
#N canvas 153 177 1387 720 \$0-arrays-r4 0;
#X obj 830 30 array define r4-right-array-60;
#X obj 1230 30 array define r4-right-array-58;
#X obj 1030 53 array define r4-right-array-56;
#X obj 830 76 array define r4-right-array-54;
#X obj 1230 76 array define r4-right-array-52;
#X obj 1030 99 array define r4-right-array-50;
#X obj 830 122 array define r4-right-array-48;
#X obj 1230 122 array define r4-right-array-46;
#X obj 1030 145 array define r4-right-array-44;
#X obj 830 168 array define r4-right-array-42;
#X obj 1230 168 array define r4-right-array-40;
#X obj 1030 191 array define r4-right-array-38;
#X obj 830 214 array define r4-right-array-36;
#X obj 1230 214 array define r4-right-array-34;
#X obj 1030 237 array define r4-right-array-32;
#X obj 830 260 array define r4-right-array-30;
#X obj 1230 260 array define r4-right-array-28;
#X obj 1030 283 array define r4-right-array-26;
#X obj 830 306 array define r4-right-array-24;
#X obj 1230 306 array define r4-right-array-22;
#X obj 1030 329 array define r4-right-array-20;
#X obj 830 352 array define r4-right-array-18;
#X obj 1230 352 array define r4-right-array-16;
#X obj 1030 375 array define r4-right-array-14;
#X obj 830 398 array define r4-right-array-12;
#X obj 1230 398 array define r4-right-array-10;
#X obj 1030 421 array define r4-right-array-8;
#X obj 830 444 array define r4-right-array-6;
#X obj 1230 444 array define r4-right-array-4;
#X obj 1030 467 array define r4-right-array-2;
#X obj 830 490 array define r4-right-array0;
#X obj 1230 490 array define r4-right-array2;
#X obj 1030 513 array define r4-right-array4;
#X obj 830 536 array define r4-right-array6;
#X obj 1230 536 array define r4-right-array8;
#X obj 1030 559 array define r4-right-array10;
#X obj 830 582 array define r4-right-array12;
#X obj 1230 582 array define r4-right-array14;
#X obj 1030 605 array define r4-right-array16;
#X obj 830 628 array define r4-right-array18;
#X obj 1230 628 array define r4-right-array20;
#X obj 1030 651 array define r4-right-array22;
#X obj 830 674 array define r4-right-array24;
#X obj 1230 674 array define r4-right-array26;
#X obj 1030 697 array define r4-right-array28;
#X obj 830 720 array define r4-right-array30;
#X obj 1230 720 array define r4-right-array32;
#X obj 1030 743 array define r4-right-array34;
#X obj 830 766 array define r4-right-array36;
#X obj 1230 766 array define r4-right-array38;
#X obj 1030 789 array define r4-right-array40;
#X obj 830 812 array define r4-right-array42;
#X obj 1230 812 array define r4-right-array44;
#X obj 1030 835 array define r4-right-array46;
#X obj 830 858 array define r4-right-array48;
#X obj 1230 858 array define r4-right-array50;
#X obj 1030 881 array define r4-right-array52;
#X obj 830 904 array define r4-right-array54;
#X obj 1230 904 array define r4-right-array56;
#X obj 1030 927 array define r4-right-array58;
#X obj 830 950 array define r4-right-array60;
#X obj 30 30 array define r4-left-array-60;
#X obj 430 30 array define r4-left-array-58;
#X obj 230 53 array define r4-left-array-56;
#X obj 30 76 array define r4-left-array-54;
#X obj 430 76 array define r4-left-array-52;
#X obj 230 99 array define r4-left-array-50;
#X obj 30 122 array define r4-left-array-48;
#X obj 430 122 array define r4-left-array-46;
#X obj 230 145 array define r4-left-array-44;
#X obj 30 168 array define r4-left-array-42;
#X obj 430 168 array define r4-left-array-40;
#X obj 230 191 array define r4-left-array-38;
#X obj 30 214 array define r4-left-array-36;
#X obj 430 214 array define r4-left-array-34;
#X obj 230 237 array define r4-left-array-32;
#X obj 30 260 array define r4-left-array-30;
#X obj 430 260 array define r4-left-array-28;
#X obj 230 283 array define r4-left-array-26;
#X obj 30 306 array define r4-left-array-24;
#X obj 430 306 array define r4-left-array-22;
#X obj 230 329 array define r4-left-array-20;
#X obj 30 352 array define r4-left-array-18;
#X obj 430 352 array define r4-left-array-16;
#X obj 230 375 array define r4-left-array-14;
#X obj 30 398 array define r4-left-array-12;
#X obj 430 398 array define r4-left-array-10;
#X obj 230 421 array define r4-left-array-8;
#X obj 30 444 array define r4-left-array-6;
#X obj 430 444 array define r4-left-array-4;
#X obj 230 467 array define r4-left-array-2;
#X obj 30 490 array define r4-left-array0;
#X obj 430 490 array define r4-left-array2;
#X obj 230 513 array define r4-left-array4;
#X obj 30 536 array define r4-left-array6;
#X obj 430 536 array define r4-left-array8;
#X obj 230 559 array define r4-left-array10;
#X obj 30 582 array define r4-left-array12;
#X obj 430 582 array define r4-left-array14;
#X obj 230 605 array define r4-left-array16;
#X obj 30 628 array define r4-left-array18;
#X obj 430 628 array define r4-left-array20;
#X obj 230 651 array define r4-left-array22;
#X obj 30 674 array define r4-left-array24;
#X obj 430 674 array define r4-left-array26;
#X obj 230 697 array define r4-left-array28;
#X obj 30 720 array define r4-left-array30;
#X obj 430 720 array define r4-left-array32;
#X obj 230 743 array define r4-left-array34;
#X obj 30 766 array define r4-left-array36;
#X obj 430 766 array define r4-left-array38;
#X obj 230 789 array define r4-left-array40;
#X obj 30 812 array define r4-left-array42;
#X obj 430 812 array define r4-left-array44;
#X obj 230 835 array define r4-left-array46;
#X obj 30 858 array define r4-left-array48;
#X obj 430 858 array define r4-left-array50;
#X obj 230 881 array define r4-left-array52;
#X obj 30 904 array define r4-left-array54;
#X obj 430 904 array define r4-left-array56;
#X obj 230 927 array define r4-left-array58;
#X obj 30 950 array define r4-left-array60;
#X restore 10 11 pd \$0-arrays-r4;
#X obj 978 626 s pd-\$0-arrays-r4;
#X obj 586 798 list prepend 114 52 45 108 101 102 116 45;
#X obj 1002 795 list prepend 114 52 45 114 105 103 104 116 45;
#X obj 909 887 s pd-\$0-arrays-r4;
#X obj 493 890 s pd-\$0-arrays-r4;
#X msg 461 923 read -resize ../resources/convolved/convolved_R4_\$1azim_0elev_left.wav
r4-left-array\$1, f 31;
#X msg 876 917 read -resize ../resources/convolved/convolved_R4_\$1azim_0elev_right.wav
r4-right-array\$1, f 31;
#X obj 413 184 change;
#X obj 413 209 s angular-resolution;
#X obj 471 154 change;
#X obj 471 179 s angular-range;
#X obj 629 115 r angular-range;
#X obj 629 145 r angular-resolution;
#X connect 0 0 96 0;
#X connect 1 0 94 0;
#X connect 5 0 78 0;
#X connect 6 0 4 0;
#X connect 8 0 9 0;
#X connect 9 0 10 0;
#X connect 9 0 25 0;
#X connect 10 0 9 1;
#X connect 11 0 88 0;
#X connect 12 0 15 2;
#X connect 13 0 9 1;
#X connect 14 0 11 0;
#X connect 15 0 40 0;
#X connect 16 0 15 1;
#X connect 17 0 75 0;
#X connect 18 0 16 0;
#X connect 19 0 17 0;
#X connect 20 0 18 0;
#X connect 22 0 76 0;
#X connect 23 0 26 0;
#X connect 24 0 42 0;
#X connect 24 1 19 0;
#X connect 24 2 20 0;
#X connect 24 3 43 0;
#X connect 25 0 24 0;
#X connect 26 0 27 0;
#X connect 27 0 41 0;
#X connect 28 0 27 1;
#X connect 29 0 32 0;
#X connect 31 0 37 0;
#X connect 32 0 33 0;
#X connect 33 0 5 0;
#X connect 34 0 27 1;
#X connect 35 0 38 0;
#X connect 35 1 38 1;
#X connect 35 2 25 1;
#X connect 35 2 61 1;
#X connect 36 0 21 0;
#X connect 36 1 30 0;
#X connect 37 0 32 1;
#X connect 37 1 34 0;
#X connect 38 0 36 0;
#X connect 39 0 38 0;
#X connect 39 1 42 1;
#X connect 39 1 43 1;
#X connect 39 1 73 1;
#X connect 39 1 74 1;
#X connect 40 0 91 0;
#X connect 41 0 29 0;
#X connect 41 1 28 0;
#X connect 42 0 92 0;
#X connect 43 0 14 0;
#X connect 44 0 45 0;
#X connect 45 0 46 0;
#X connect 45 0 61 0;
#X connect 46 0 45 1;
#X connect 47 0 87 0;
#X connect 48 0 89 0;
#X connect 49 0 53 2;
#X connect 50 0 45 1;
#X connect 51 0 44 0;
#X connect 51 1 50 0;
#X connect 51 2 47 0;
#X connect 52 0 48 0;
#X connect 53 0 71 0;
#X connect 54 0 53 1;
#X connect 55 0 77 0;
#X connect 56 0 54 0;
#X connect 57 0 55 0;
#X connect 58 0 56 0;
#X connect 59 0 62 0;
#X connect 60 0 73 0;
#X connect 60 1 57 0;
#X connect 60 2 58 0;
#X connect 60 3 74 0;
#X connect 61 0 60 0;
#X connect 62 0 63 0;
#X connect 63 0 72 0;
#X connect 64 0 63 1;
#X connect 65 0 67 0;
#X connect 66 0 70 0;
#X connect 67 0 68 0;
#X connect 68 0 5 0;
#X connect 69 0 63 1;
#X connect 70 0 67 1;
#X connect 70 1 69 0;
#X connect 71 0 90 0;
#X connect 72 0 65 0;
#X connect 72 1 64 0;
#X connect 73 0 93 0;
#X connect 74 0 52 0;
#X connect 75 0 15 0;
#X connect 76 0 82 0;
#X connect 76 1 51 0;
#X connect 77 0 53 0;
#X connect 80 0 39 0;
#X connect 81 0 35 0;
#X connect 82 0 8 0;
#X connect 82 1 13 0;
#X connect 83 0 84 0;
#X connect 84 0 4 0;
#X connect 88 0 12 0;
#X connect 89 0 49 0;
#X connect 92 0 23 0;
#X connect 93 0 59 0;
#X connect 94 0 95 0;
#X connect 96 0 97 0;
#X connect 98 0 0 0;
#X connect 99 0 1 0;
#X coords 0 -1 1 1 300 130 1 100 100;
#X restore 930 121 pd file-loader.subpatch;
#N canvas 1379 541 1850 984 binaural-player.subpatch 0;
#X obj 1142 557 hsl 162 19 0 1 0 0 empty empty empty -2 -10 0 12 #fcfcfc
#000000 #000000 0 1;
#X obj 1139 531 line, f 18;
#X obj 1139 396 tgl 19 0 empty empty empty 0 -10 0 12 #fcfcfc #000000
#000000 0 1;
#X obj 1139 421 select 0 1, f 18;
#X msg 1139 494 0 \$1;
#X msg 1200 494 1 \$1;
#X obj 1200 468 f 5.3;
#X obj 1139 467 f 5.3;
#X obj 956 408 * 1000;
#X obj 956 431 / 48000;
#X obj 219 338 loadbang;
#X obj 1102 1031 == 0;
#X obj 1314 1031 == 1;
#X obj 1102 1056 change 0;
#X obj 1314 1055 change 0;
#X obj 1102 1081 select 1;
#X obj 1314 1080 select 1;
#X obj 1139 361 t b f, f 10;
#X obj 544 658 swap 1;
#X obj 544 682 -, f 6;
#X obj 388 716 *~;
#X obj 526 716 *~;
#X obj 701 713 *~;
#X obj 835 714 *~;
#X obj 387 763 +~;
#X obj 526 762 +~;
#X obj 387 833 outlet~;
#X obj 526 832 outlet~;
#X msg 1314 1198 set \$1;
#X msg 1102 1201 set \$1;
#X obj 1102 1143 f;
#X obj 1314 1142 f;
#X msg 1102 1287 set \$1;
#X msg 1314 1288 set \$1;
#X obj 504 619 spigot;
#X msg 31 551 stop;
#X obj 1139 258 t f f, f 6;
#X obj 1139 336 spigot;
#X obj 1178 309 == 0;
#X obj 1178 284 mod 1;
#X obj 1210 258 r angular-resolution;
#X obj 181 525 list append, f 12;
#X obj 181 551 list trim;
#X obj 219 158 bng 20 250 50 0 empty empty empty 17 7 0 10 #c6ffc7
#000000 #000000;
#X floatatom 219 186 12 0 0 0 - - - 0;
#X obj 219 210 tgl 20 0 empty empty empty 17 7 0 10 #fcfcfc #000000
#000000 0 1;
#X obj 222 241 hsl 128 15 0 1 0 0 empty empty empty -2 -8 0 10 #ffe3c6
#000000 #000000 0 1;
#X obj 25 196 loadbang;
#X obj 25 221 f 0;
#X text 107 157 sart | stop;
#X obj 253 158 bng 20 250 50 0 empty empty empty 17 7 0 10 #ffc7c6
#000000 #000000;
#X text 108 183 start sample;
#X text 108 239 volume;
#X text 108 210 loop;
#X obj 449 230 s \$0-loop-binPlayer;
#X obj 543 595 r \$0-loop-binPlayer;
#X obj 449 256 s \$0-volume-binPlayer;
#X obj 599 178 s \$0-stop-binPlayer;
#X obj 181 476 r \$0-start-binPlayer;
#X obj 332 476 r \$0-start-time-binPlayer;
#X obj 31 526 r \$0-stop-binPlayer;
#X floatatom 219 267 12 0 0 0 - - - 0;
#X text 108 264 sample overlap;
#X obj 449 286 s \$0-blend-binPlayer;
#X obj 956 382 r \$0-blend-binPlayer;
#X msg 181 501 bang;
#X obj 220 303 bng 15 250 50 0 empty empty empty 17 7 0 10 #ffffff
#c6feff #ff0400;
#X obj 449 178 s \$0-start-binPlayer;
#X obj 449 205 s \$0-start-time-binPlayer;
#X obj 387 807 *~;
#X obj 526 806 *~;
#X obj 629 770 r \$0-volume-binPlayer;
#X text 108 300 osc receive;
#X obj 388 571 tabplay~ default1;
#X obj 525 571 tabplay~ default1;
#X obj 700 571 tabplay~ default1;
#X obj 834 571 tabplay~ default1;
#X obj 219 362 f 128;
#X text 345 100 player4;
#X obj 388 545 r buffer1-left-p4;
#X obj 525 544 r buffer1-right-p4;
#X obj 700 543 r buffer2-left-p4;
#X obj 834 543 r buffer2-right-p4;
#X obj 1139 585 s \$0-currentSelected-p4;
#X obj 1206 388 s \$0-currentAngle-p4;
#X obj 1102 989 r \$0-currentSelected-p4;
#X obj 1383 1081 r \$0-currentAngle-p4;
#X obj 1314 1173 makefilename r4-left-array%d;
#X obj 1103 1173 makefilename r4-left-array%d;
#X obj 1102 1226 s buffer1-left-p4;
#X obj 1314 1223 s buffer2-left-p4;
#X obj 1314 1263 makefilename r4-right-array%d;
#X obj 1314 1313 s buffer2-right-p4;
#X obj 1102 1312 s buffer1-right-p4;
#X obj 1102 1263 makefilename r4-right-array%d;
#X obj 1139 232 * -1;
#X obj 1139 175 change;
#X obj 1164 207 r polarity-azim;
#X obj 1139 150 r src4-yaw;
#X connect 0 0 18 0;
#X connect 0 0 22 1;
#X connect 0 0 23 1;
#X connect 0 0 83 0;
#X connect 1 0 0 0;
#X connect 2 0 3 0;
#X connect 3 0 7 0;
#X connect 3 1 6 0;
#X connect 4 0 1 0;
#X connect 5 0 1 0;
#X connect 6 0 5 0;
#X connect 7 0 4 0;
#X connect 8 0 9 0;
#X connect 9 0 7 1;
#X connect 9 0 6 1;
#X connect 10 0 77 0;
#X connect 11 0 13 0;
#X connect 12 0 14 0;
#X connect 13 0 15 0;
#X connect 14 0 16 0;
#X connect 15 0 30 0;
#X connect 16 0 31 0;
#X connect 17 0 2 0;
#X connect 17 0 66 0;
#X connect 17 1 84 0;
#X connect 18 0 19 0;
#X connect 18 1 19 1;
#X connect 19 0 21 1;
#X connect 19 0 20 1;
#X connect 20 0 24 0;
#X connect 21 0 25 0;
#X connect 22 0 24 1;
#X connect 23 0 25 1;
#X connect 24 0 69 0;
#X connect 25 0 70 0;
#X connect 28 0 90 0;
#X connect 29 0 89 0;
#X connect 30 0 88 0;
#X connect 30 0 94 0;
#X connect 31 0 87 0;
#X connect 31 0 91 0;
#X connect 32 0 93 0;
#X connect 33 0 92 0;
#X connect 34 0 73 0;
#X connect 34 0 74 0;
#X connect 34 0 75 0;
#X connect 34 0 76 0;
#X connect 35 0 73 0;
#X connect 35 0 74 0;
#X connect 35 0 75 0;
#X connect 35 0 76 0;
#X connect 36 0 37 0;
#X connect 36 1 39 0;
#X connect 37 0 17 0;
#X connect 38 0 37 1;
#X connect 39 0 38 0;
#X connect 40 0 39 1;
#X connect 41 0 42 0;
#X connect 42 0 73 0;
#X connect 42 0 74 0;
#X connect 42 0 75 0;
#X connect 42 0 76 0;
#X connect 43 0 67 0;
#X connect 44 0 68 0;
#X connect 45 0 54 0;
#X connect 46 0 56 0;
#X connect 47 0 48 0;
#X connect 48 0 46 0;
#X connect 50 0 57 0;
#X connect 55 0 34 1;
#X connect 58 0 65 0;
#X connect 59 0 41 1;
#X connect 60 0 35 0;
#X connect 61 0 63 0;
#X connect 64 0 8 0;
#X connect 65 0 41 0;
#X connect 69 0 26 0;
#X connect 70 0 27 0;
#X connect 71 0 69 1;
#X connect 71 0 70 1;
#X connect 73 0 20 0;
#X connect 73 1 34 0;
#X connect 74 0 21 0;
#X connect 75 0 22 0;
#X connect 76 0 23 0;
#X connect 77 0 61 0;
#X connect 79 0 73 0;
#X connect 80 0 74 0;
#X connect 81 0 75 0;
#X connect 82 0 76 0;
#X connect 85 0 11 0;
#X connect 85 0 12 0;
#X connect 86 0 30 1;
#X connect 86 0 31 1;
#X connect 87 0 28 0;
#X connect 88 0 29 0;
#X connect 91 0 33 0;
#X connect 94 0 32 0;
#X connect 95 0 36 0;
#X connect 96 0 95 0;
#X connect 97 0 95 1;
#X connect 98 0 96 0;
#X coords 0 -1 1 1 300 230 1 100 100;
#X restore 930 388 pd binaural-player.subpatch;
#N canvas 1508 532 1850 984 osc-receiver.subpatch 0;
#X obj 89 445 netreceive -u -b;
#X obj 89 469 oscparse;
#X obj 63 765 outlet;
#X obj 138 386 inlet;
#X obj 183 827 outlet;
#X obj 129 611 spigot;
#X obj 168 583 inlet;
#X obj 286 837 outlet;
#X msg 89 415 listen \$1;
#X obj 89 493 list trim;
#X obj 89 518 list split 3;
#X obj 129 636 unpack f f f, f 16;
#X obj 129 660 expr round($f1);
#X obj 237 715 expr round($f1);
#X obj 183 690 expr round($f1);
#X floatatom 195 133 7 0 0 0 - - - 0;
#X obj 196 158 tgl 20 0 empty empty empty 17 7 0 10 #ffffff #000000
#000000 0 1;
#X floatatom 196 184 7 0 0 0 - - - 0;
#X floatatom 267 184 7 0 0 0 - - - 0;
#X floatatom 335 184 7 0 0 0 - - - 0;
#X text 207 204 yaw;
#X text 273 204 pitch;
#X text 340 204 roll;
#X text 105 132 osc port;
#X text 106 158 activate;
#X text 106 184 coordinates;
#X obj 555 64 r src3-yaw;
#X obj 561 87 r src3-pitch;
#X obj 572 109 r src3-roll;
#X obj 532 152 s \$0-oscport-src3;
#X obj 533 178 s \$0-oscactivate-src3;
#X obj 89 361 r \$0-oscport-src3;
#X obj 215 581 r \$0-oscactivate-src3;
#X obj 244 861 s src3-roll;
#X obj 134 851 s src3-pitch;
#X obj 28 789 s src3-yaw;
#X text 365 101 src3;
#X connect 0 0 1 0;
#X connect 1 0 9 0;
#X connect 3 0 8 0;
#X connect 5 0 11 0;
#X connect 6 0 5 1;
#X connect 8 0 0 0;
#X connect 9 0 10 0;
#X connect 10 1 5 0;
#X connect 11 0 12 0;
#X connect 11 1 14 0;
#X connect 11 2 13 0;
#X connect 12 0 2 0;
#X connect 12 0 35 0;
#X connect 13 0 7 0;
#X connect 13 0 33 0;
#X connect 14 0 4 0;
#X connect 14 0 34 0;
#X connect 15 0 29 0;
#X connect 16 0 30 0;
#X connect 26 0 17 0;
#X connect 27 0 18 0;
#X connect 28 0 19 0;
#X connect 31 0 8 0;
#X connect 32 0 5 1;
#X coords 0 -1 1 1 300 125 1 100 100;
#X restore 625 260 pd osc-receiver.subpatch;
#N canvas 1812 613 1850 984 osc-receiver.subpatch 0;
#X obj 89 445 netreceive -u -b;
#X obj 89 469 oscparse;
#X obj 63 765 outlet;
#X obj 138 386 inlet;
#X obj 183 827 outlet;
#X obj 129 611 spigot;
#X obj 168 583 inlet;
#X obj 286 837 outlet;
#X msg 89 415 listen \$1;
#X obj 89 493 list trim;
#X obj 89 518 list split 3;
#X obj 129 636 unpack f f f, f 16;
#X obj 129 660 expr round($f1);
#X obj 237 715 expr round($f1);
#X obj 183 690 expr round($f1);
#X floatatom 195 133 7 0 0 0 - - - 0;
#X obj 196 158 tgl 20 0 empty empty empty 17 7 0 10 #ffffff #000000
#000000 0 1;
#X floatatom 196 184 7 0 0 0 - - - 0;
#X floatatom 267 184 7 0 0 0 - - - 0;
#X floatatom 335 184 7 0 0 0 - - - 0;
#X text 207 204 yaw;
#X text 273 204 pitch;
#X text 340 204 roll;
#X text 105 132 osc port;
#X text 106 158 activate;
#X text 106 184 coordinates;
#X obj 555 64 r src4-yaw;
#X obj 561 87 r src4-pitch;
#X obj 572 109 r src4-roll;
#X obj 532 152 s \$0-oscport-src4;
#X obj 533 178 s \$0-oscactivate-src4;
#X text 365 102 src4;
#X obj 89 361 r \$0-oscport-src4;
#X obj 215 581 r \$0-oscactivate-src4;
#X obj 244 861 s src4-roll;
#X obj 134 851 s src4-pitch;
#X obj 28 789 s src4-yaw;
#X connect 0 0 1 0;
#X connect 1 0 9 0;
#X connect 3 0 8 0;
#X connect 5 0 11 0;
#X connect 6 0 5 1;
#X connect 8 0 0 0;
#X connect 9 0 10 0;
#X connect 10 1 5 0;
#X connect 11 0 12 0;
#X connect 11 1 14 0;
#X connect 11 2 13 0;
#X connect 12 0 2 0;
#X connect 12 0 36 0;
#X connect 13 0 7 0;
#X connect 13 0 34 0;
#X connect 14 0 4 0;
#X connect 14 0 35 0;
#X connect 15 0 29 0;
#X connect 16 0 30 0;
#X connect 26 0 17 0;
#X connect 27 0 18 0;
#X connect 28 0 19 0;
#X connect 32 0 8 0;
#X connect 33 0 5 1;
#X coords 0 -1 1 1 300 125 1 100 100;
#X restore 930 260 pd osc-receiver.subpatch;
#N canvas 70 27 1850 984 osc-receiver.subpatch 0;
#X obj 89 445 netreceive -u -b;
#X obj 89 469 oscparse;
#X obj 63 765 outlet;
#X obj 138 386 inlet;
#X obj 183 827 outlet;
#X obj 129 611 spigot;
#X obj 189 581 inlet;
#X obj 274 837 outlet;
#X msg 89 415 listen \$1;
#X obj 89 493 list trim;
#X obj 89 518 list split 3;
#X obj 129 636 unpack f f f, f 16;
#X obj 129 660 expr round($f1);
#X obj 237 715 expr round($f1);
#X obj 183 690 expr round($f1);
#X floatatom 195 133 7 0 0 0 - - - 0;
#X obj 196 158 tgl 20 0 empty empty empty 17 7 0 10 #ffffff #000000
#000000 0 1;
#X floatatom 196 184 7 0 0 0 - - - 0;
#X floatatom 267 184 7 0 0 0 - - - 0;
#X floatatom 335 184 7 0 0 0 - - - 0;
#X text 207 204 yaw;
#X text 273 204 pitch;
#X text 340 204 roll;
#X text 105 132 osc port;
#X text 106 158 activate;
#X text 106 184 coordinates;
#X text 364 103 src2;
#X obj 532 152 s \$0-oscport-src2;
#X obj 533 178 s \$0-oscactivate-src2;
#X obj 555 64 r src2-yaw;
#X obj 561 87 r src2-pitch;
#X obj 572 109 r src2-roll;
#X obj 90 362 r \$0-oscport-src2;
#X obj 236 579 r \$0-oscactivate-src2;
#X obj 237 861 s src2-roll;
#X obj 134 851 s src2-pitch;
#X obj 28 789 s src2-yaw;
#X connect 0 0 1 0;
#X connect 1 0 9 0;
#X connect 3 0 8 0;
#X connect 5 0 11 0;
#X connect 6 0 5 1;
#X connect 8 0 0 0;
#X connect 9 0 10 0;
#X connect 10 1 5 0;
#X connect 11 0 12 0;
#X connect 11 1 14 0;
#X connect 11 2 13 0;
#X connect 12 0 2 0;
#X connect 12 0 36 0;
#X connect 13 0 7 0;
#X connect 13 0 34 0;
#X connect 14 0 4 0;
#X connect 14 0 35 0;
#X connect 15 0 27 0;
#X connect 16 0 28 0;
#X connect 29 0 17 0;
#X connect 30 0 18 0;
#X connect 31 0 19 0;
#X connect 32 0 8 0;
#X connect 33 0 5 1;
#X coords 0 -1 1 1 300 125 1 100 100;
#X restore 318 258 pd osc-receiver.subpatch;
#X obj 931 622 dac~ 7 8, f 42;
#X connect 2 0 3 0;
#X connect 2 1 3 1;
#X connect 7 0 9 0;
#X connect 7 1 9 1;
#X connect 11 0 12 0;
#X connect 11 1 12 1;
#X connect 14 0 18 0;
#X connect 14 1 18 1;
