#N canvas 3080 -689 1261 867 12;
#X declare -path ../externals;
#X declare -path ../externals/ssr;
#X obj 10 823 dac~ 1 2, f 42;
#X obj 317 823 dac~ 3 4, f 42;
#X obj 624 823 dac~ 5 6, f 42;
#X obj 929 822 dac~ 7 8, f 42;
#X obj 11 11 declare -path ../externals;
#X obj 11 34 declare -path ../externals/ssr;
#X obj 11 121 source_player;
#X obj 10 749 convolver_4 1 2;
#X obj 317 750 convolver_4 2 2;
#X obj 624 750 convolver_4 3 2;
#X obj 929 750 convolver_4 4 2;
#X obj 10 566 osc_receiver 1;
#X obj 318 567 osc_receiver 2;
#X obj 624 567 osc_receiver 3;
#X obj 929 568 osc_receiver 4;
#X obj 10 338 source_input;
#X obj 11 56 tracking_inversion;
#X connect 7 0 0 0;
#X connect 7 1 0 1;
#X connect 8 0 1 0;
#X connect 8 1 1 1;
#X connect 9 0 2 0;
#X connect 9 1 2 1;
#X connect 10 0 3 0;
#X connect 10 1 3 1;
