#N canvas 0 0 1924 1041 12;
#X declare -path ../externals;
#X declare -path ../externals/ssr;
#X obj 9 755 dac~ 1 2, f 42;
#X obj 316 755 dac~ 3 4, f 42;
#X obj 623 755 dac~ 5 6, f 42;
#X obj 928 754 dac~ 7 8, f 42;
#N canvas 3974 466 1260 540 tracking-inversion 0;
#X obj 192 142 tgl 15 0 empty empty empty 17 7 0 10 #fcfcfc #000000 #000000 0 1;
#X obj 192 166 expr if ($f1 == 1 \, $f1 \, -1), f 18;
#X text 107 78 set to 1 if azimuth is mirrored;
#X obj 192 207 s polarity-azim;
#X text 187 117 yaw;
#X obj 251 142 tgl 15 0 empty empty empty 17 7 0 10 #fcfcfc #000000 #000000 0 1;
#X text 238 117 pitch;
#X obj 304 142 tgl 15 0 empty empty empty 17 7 0 10 #fcfcfc #000000 #000000 0 1;
#X text 294 117 roll;
#X text 101 137 inverse;
#X obj 251 238 expr if ($f1 == 1 \, $f1 \, -1), f 18;
#X obj 251 279 s polarity-pitch;
#X obj 304 314 expr if ($f1 == 1 \, $f1 \, -1), f 18;
#X obj 304 355 s polarity-roll;
#X connect 0 0 1 0;
#X connect 1 0 3 0;
#X connect 5 0 10 0;
#X connect 7 0 12 0;
#X connect 10 0 11 0;
#X connect 12 0 13 0;
#X coords 0 -1 1 1 230 60 2 100 100;
#X restore 11 57 pd tracking-inversion;
#X obj 11 11 declare -path ../externals;
#X obj 11 34 declare -path ../externals/ssr;
#X obj 11 121 source_player;
#X obj 9 681 convolver_4 1 2;
#X obj 316 682 convolver_4 2 2;
#X obj 623 682 convolver_4 3 2;
#X obj 928 682 convolver_4 4 2;
#X obj 9 546 osc_receiver 1;
#X obj 317 547 osc_receiver 2;
#X obj 623 547 osc_receiver 3;
#X obj 928 548 osc_receiver 4;
#X obj 10 338 source_input;
#X connect 7 0 16 0;
#X connect 8 0 0 0;
#X connect 8 1 0 1;
#X connect 9 0 1 0;
#X connect 9 1 1 1;
#X connect 10 0 2 0;
#X connect 10 1 2 1;
#X connect 11 0 3 0;
#X connect 11 1 3 1;
