#N canvas 4191 -902 346 856 12;
#X declare -path ../externals;
#X declare -path ../externals/ssr;
#X obj 18 820 dac~ 1 2, f 42;
#X obj 17 15 declare -path ../externals;
#X obj 17 36 declare -path ../externals/ssr;
#X obj 17 749 convolver_4 1 2;
#X obj 17 567 osc_receiver 1;
#X obj 17 123 source_player;
#X obj 17 340 source_input;
#X obj 17 58 tracking_inversion;
#X connect 3 0 0 0;
#X connect 3 1 0 1;
#X connect 5 0 6 0;
