#N canvas 60 217 333 786 12;
#X declare -path ../externals;
#X declare -path ../externals/ssr;
#N canvas 70 27 1850 984 osc-receiver.subpatch 0;
#X obj 89 445 netreceive -u -b;
#X obj 89 469 oscparse;
#X obj 112 713 outlet;
#X obj 138 386 inlet;
#X obj 183 827 outlet;
#X obj 129 611 spigot;
#X obj 168 583 inlet;
#X obj 275 837 outlet;
#X msg 89 415 listen \$1;
#X obj 89 493 list trim;
#X obj 89 518 list split 3;
#X obj 129 636 unpack f f f, f 16;
#X obj 129 660 expr round($f1);
#X obj 238 715 expr round($f1);
#X obj 183 690 expr round($f1);
#X floatatom 195 133 7 0 0 0 - - - 0;
#X obj 196 158 tgl 20 0 empty empty empty 17 7 0 10 #ffffff #000000
#000000 0 1;
#X floatatom 196 184 7 0 0 0 - - - 0;
#X floatatom 267 184 7 0 0 0 - - - 0;
#X floatatom 335 184 7 0 0 0 - - - 0;
#X text 207 204 yaw;
#X text 273 204 pitch;
#X text 340 204 roll;
#X text 105 132 osc port;
#X text 106 158 activate;
#X text 106 184 coordinates;
#X text 364 103 src1;
#X obj 555 64 r src1-yaw;
#X obj 561 87 r src1-pitch;
#X obj 572 109 r src1-roll;
#X obj 532 152 s \$0-oscport-src1;
#X obj 533 178 s \$0-oscactivate-src1;
#X obj 90 362 r \$0-oscport-src1;
#X obj 84 736 s src1-yaw;
#X obj 134 851 s src1-pitch;
#X obj 238 861 s src1-roll;
#X obj 215 581 r \$0-oscactivate-src1;
#X connect 0 0 1 0;
#X connect 1 0 9 0;
#X connect 3 0 8 0;
#X connect 5 0 11 0;
#X connect 6 0 5 1;
#X connect 8 0 0 0;
#X connect 9 0 10 0;
#X connect 10 1 5 0;
#X connect 11 0 12 0;
#X connect 11 1 14 0;
#X connect 11 2 13 0;
#X connect 12 0 2 0;
#X connect 12 0 33 0;
#X connect 13 0 7 0;
#X connect 13 0 35 0;
#X connect 14 0 4 0;
#X connect 14 0 34 0;
#X connect 15 0 30 0;
#X connect 16 0 31 0;
#X connect 27 0 17 0;
#X connect 28 0 18 0;
#X connect 29 0 19 0;
#X connect 32 0 8 0;
#X connect 36 0 5 1;
#X coords 0 -1 1 1 300 125 1 100 100;
#X restore 17 541 pd osc-receiver.subpatch;
#X obj 18 747 dac~ 1 2, f 42;
#X obj 17 122 source-player;
#N canvas 528 160 1381 843 binaural-convolution.subpatch 0;
#X obj 405 90 loadbang;
#X obj 657 541 outlet~;
#X obj 1004 536 outlet~;
#X obj 196 135 tgl 20 0 empty empty empty 17 7 0 10 #ffc7c6 #000000
#000000 0 1;
#X obj 405 115 f 0;
#X obj 517 336 * -1;
#X msg 517 360 ref rot \$1;
#X text 106 135 source mute;
#X obj 245 135 tgl 20 0 empty empty empty 17 7 0 10 #ffc7c6 #000000
#000000 0 1;
#X obj 297 135 tgl 20 0 empty empty empty 17 7 0 10 #ffc7c6 #000000
#000000 0 1;
#X obj 346 135 tgl 20 0 empty empty empty 17 7 0 10 #ffc7c6 #000000
#000000 0 1;
#X msg 196 212 src 1 mute \$1;
#X msg 245 235 src 2 mute \$1;
#X msg 297 259 src 3 mute \$1;
#X msg 346 282 src 4 mute \$1;
#X obj 517 279 change;
#X obj 657 379 r~ src1;
#X obj 773 380 r~ src2;
#X obj 890 379 r~ src3;
#X obj 1006 380 r~ src4;
#X text 345 100 player1;
#X obj 517 254 r src1-yaw;
#X obj 542 311 r polarity-azim;
#X text 518 221 ssr_brs~ handles horizontal orientations only;
#X obj 658 443 ssr_brs~ 1 brirs/S1_R1_dyn.wav brirs/S1_R1_dyn.wav brirs/S1_R1_dyn.wav
brirs/S1_R1_dyn.wav;
#X obj 275 443 ssr_brs~ 1 brirs/S1_R1_stat.wav brirs/S1_R1_stat.wav
brirs/S1_R1_stat.wav brirs/S1_R1_stat.wav;
#X connect 0 0 4 0;
#X connect 3 0 11 0;
#X connect 4 0 3 0;
#X connect 4 0 8 0;
#X connect 4 0 9 0;
#X connect 4 0 10 0;
#X connect 5 0 6 0;
#X connect 6 0 24 0;
#X connect 8 0 12 0;
#X connect 9 0 13 0;
#X connect 10 0 14 0;
#X connect 11 0 24 0;
#X connect 11 0 25 0;
#X connect 12 0 24 0;
#X connect 12 0 25 0;
#X connect 13 0 24 0;
#X connect 13 0 25 0;
#X connect 14 0 24 0;
#X connect 14 0 25 0;
#X connect 15 0 5 0;
#X connect 16 0 24 0;
#X connect 16 0 25 0;
#X connect 17 0 24 1;
#X connect 17 0 25 1;
#X connect 18 0 24 2;
#X connect 18 0 25 2;
#X connect 19 0 24 3;
#X connect 19 0 25 3;
#X connect 21 0 15 0;
#X connect 22 0 5 1;
#X connect 24 0 1 0;
#X connect 24 1 2 0;
#X connect 25 0 1 0;
#X connect 25 1 2 0;
#X coords 0 -1 1 1 300 65 1 100 100;
#X restore 17 672 pd binaural-convolution.subpatch;
#N canvas 3974 466 1260 540 tracking-inversion 0;
#X obj 192 138 tgl 15 0 empty empty empty 17 7 0 10 #fcfcfc #000000
#000000 0 1;
#X obj 192 166 expr if ($f1 == 1 \, $f1 \, -1), f 18;
#X text 107 78 set to 1 if azimuth is mirrored;
#X obj 192 207 s polarity-azim;
#X text 187 113 yaw;
#X obj 251 138 tgl 15 0 empty empty empty 17 7 0 10 #fcfcfc #000000
#000000 0 1;
#X text 238 113 pitch;
#X obj 304 138 tgl 15 0 empty empty empty 17 7 0 10 #fcfcfc #000000
#000000 0 1;
#X text 294 113 roll;
#X text 101 133 inverse;
#X obj 251 238 expr if ($f1 == 1 \, $f1 \, -1), f 18;
#X obj 251 279 s polarity-pitch;
#X obj 304 314 expr if ($f1 == 1 \, $f1 \, -1), f 18;
#X obj 304 355 s polarity-roll;
#X connect 0 0 1 0;
#X connect 1 0 3 0;
#X connect 5 0 10 0;
#X connect 7 0 12 0;
#X connect 10 0 11 0;
#X connect 12 0 13 0;
#X coords 0 -1 1 1 230 60 2 100 100;
#X restore 17 58 pd tracking-inversion;
#N canvas 1837 437 946 833 source-input.subpatch 0;
#X obj 103 405 adc~ 1 2 3 4, f 26;
#X obj 103 493 *~, f 4;
#X obj 103 609 outlet~;
#X obj 163 493 *~, f 4;
#X obj 163 609 outlet~;
#X obj 223 493 *~, f 4;
#X obj 223 609 outlet~;
#X obj 283 493 *~, f 4;
#X obj 283 609 outlet~;
#X obj 207 161 vsl 15 128 0 1 0 0 empty empty empty 0 -9 0 10 #e3c6ff
#000000 #000000 0 1;
#X obj 262 161 vsl 15 128 0 1 0 0 empty empty empty 0 -9 0 10 #e3c6ff
#000000 #000000 0 1;
#X obj 317 161 vsl 15 128 0 1 0 0 empty empty empty 0 -9 0 10 #e3c6ff
#000000 #000000 0 1;
#X obj 372 161 vsl 15 128 0 1 0 0 empty empty empty 0 -9 0 10 #e3c6ff
#000000 #000000 0 1;
#X obj 192 297 s \$0-in1;
#X obj 252 297 s \$0-in2;
#X obj 312 297 s \$0-in3;
#X obj 372 297 s \$0-in4;
#X obj 308 467 r \$0-in4;
#X obj 248 440 r \$0-in3;
#X obj 188 467 r \$0-in2;
#X obj 128 440 r \$0-in1;
#X text 203 135 in1;
#X text 256 135 in2;
#X text 367 135 in4;
#X text 311 135 in3;
#X obj 515 110 loadbang;
#X obj 515 135 f 0.75;
#X obj 125 161 vsl 15 128 0 1 0 0 empty empty empty 0 -9 0 10 #ffe3c6
#000000 #000000 0 1;
#X text 109 135 master;
#X obj 103 544 *~;
#X obj 163 544 *~;
#X obj 223 544 *~;
#X obj 283 544 *~;
#X obj 125 330 s \$0-master;
#X obj 415 501 r \$0-master;
#X obj 28 83 loadbang;
#X obj 28 108 f 0;
#X obj 109 569 s~ src1;
#X obj 169 569 s~ src2;
#X obj 229 569 s~ src3;
#X obj 289 569 s~ src4;
#X obj 91 373 inlet~;
#X obj 152 373 inlet~;
#X obj 208 373 inlet~;
#X obj 269 373 inlet~;
#X text 323 372 can be used for testing;
#X connect 0 0 1 0;
#X connect 0 1 3 0;
#X connect 0 2 5 0;
#X connect 0 3 7 0;
#X connect 1 0 29 0;
#X connect 3 0 30 0;
#X connect 5 0 31 0;
#X connect 7 0 32 0;
#X connect 9 0 13 0;
#X connect 10 0 14 0;
#X connect 11 0 15 0;
#X connect 12 0 16 0;
#X connect 17 0 7 1;
#X connect 18 0 5 1;
#X connect 19 0 3 1;
#X connect 20 0 1 1;
#X connect 25 0 26 0;
#X connect 26 0 12 0;
#X connect 26 0 11 0;
#X connect 26 0 10 0;
#X connect 26 0 9 0;
#X connect 27 0 33 0;
#X connect 29 0 2 0;
#X connect 29 0 37 0;
#X connect 30 0 4 0;
#X connect 30 0 38 0;
#X connect 31 0 6 0;
#X connect 31 0 39 0;
#X connect 32 0 8 0;
#X connect 32 0 40 0;
#X connect 34 0 32 1;
#X connect 34 0 31 1;
#X connect 34 0 30 1;
#X connect 34 0 29 1;
#X connect 35 0 36 0;
#X connect 36 0 27 0;
#X connect 41 0 1 0;
#X connect 42 0 3 0;
#X connect 43 0 5 0;
#X connect 44 0 7 0;
#X coords 0 -1 1 1 300 197 1 100 100;
#X restore 17 339 pd source-input.subpatch;
#X obj 17 15 declare -path ../externals;
#X obj 17 35 declare -path ../externals/ssr;
#X connect 2 0 5 0;
#X connect 3 0 1 0;
#X connect 3 1 1 1;
