#N canvas 3114 -722 1791 961 12;
#X declare -path ../externals;
#X declare -path ../externals/ssr;
#X obj 11 11 declare -path ../externals;
#X obj 11 34 declare -path ../externals/ssr;
#X obj 11 121 source_player;
#X obj 12 560 osc_receiver 1;
#X obj 365 561 osc_receiver 2;
#X obj 714 560 osc_receiver 3;
#X obj 1060 558 osc_receiver 4;
#X text 3229 880 comment;
#X obj 253 1788 print;
#X obj 155 889 dac~ 1 2, f 16;
#X obj 44 862 pd~ -ninsig 4 -noutsig 2 -fifo 2;
#X msg 31 798 pd~ start ../externals/convolver_4_subheader_id1.pd, f 43;
#X msg 12 774 src1-yaw \$1;
#X obj 45 838 r~ src1;
#X obj 116 838 r~ src2;
#X obj 190 838 r~ src3;
#X obj 265 838 r~ src4;
#X obj 393 858 pd~ -ninsig 4 -noutsig 2 -fifo 2;
#X obj 394 834 r~ src1;
#X obj 465 834 r~ src2;
#X obj 539 834 r~ src3;
#X obj 614 834 r~ src4;
#X msg 365 770 src2-yaw \$1;
#X msg 381 794 pd~ start ../externals/convolver_4_subheader_id2.pd, f 42;
#X obj 735 855 pd~ -ninsig 4 -noutsig 2 -fifo 2;
#X obj 736 831 r~ src1;
#X obj 807 831 r~ src2;
#X obj 881 831 r~ src3;
#X obj 956 831 r~ src4;
#X msg 726 790 pd~ start ../externals/convolver_4_subheader_id3.pd, f 42;
#X msg 714 766 src3-yaw \$1;
#X obj 1080 855 pd~ -ninsig 4 -noutsig 2 -fifo 2;
#X obj 1081 831 r~ src1;
#X obj 1152 831 r~ src2;
#X obj 1226 831 r~ src3;
#X obj 1301 831 r~ src4;
#X msg 1060 764 src4-yaw \$1;
#X msg 1072 790 pd~ start ../externals/convolver_4_subheader_id4.pd, f 42;
#X obj 31 748 loadbang;
#X obj 381 745 loadbang;
#X obj 726 742 loadbang;
#X obj 1072 740 loadbang;
#X obj 504 883 dac~ 3 4, f 16;
#X obj 846 880 dac~ 5 6, f 16;
#X obj 1191 880 dac~ 7 8, f 16;
#X obj 1432 853 pd~ -ninsig 4 -noutsig 2 -fifo 2;
#X obj 1433 829 r~ src1;
#X obj 1504 829 r~ src2;
#X obj 1578 829 r~ src3;
#X obj 1653 829 r~ src4;
#X obj 1424 738 loadbang;
#X obj 1412 556 osc_receiver 5;
#X msg 1412 762 src5-yaw \$1;
#X msg 1424 788 pd~ start ../externals/convolver_4_subheader_id5.pd, f 42;
#X obj 1543 878 dac~ 9 10, f 16;
#X obj 12 331 source_input;
#X obj 11 56 tracking_inversion;
#X connect 3 0 12 0;
#X connect 4 0 22 0;
#X connect 5 0 30 0;
#X connect 6 0 36 0;
#X connect 10 1 9 0;
#X connect 10 2 9 1;
#X connect 11 0 10 0;
#X connect 12 0 10 0;
#X connect 13 0 10 0;
#X connect 14 0 10 1;
#X connect 15 0 10 2;
#X connect 16 0 10 3;
#X connect 17 1 42 0;
#X connect 17 2 42 1;
#X connect 18 0 17 0;
#X connect 19 0 17 1;
#X connect 20 0 17 2;
#X connect 21 0 17 3;
#X connect 22 0 17 0;
#X connect 23 0 17 0;
#X connect 24 1 43 0;
#X connect 24 2 43 1;
#X connect 25 0 24 0;
#X connect 26 0 24 1;
#X connect 27 0 24 2;
#X connect 28 0 24 3;
#X connect 29 0 24 0;
#X connect 30 0 24 0;
#X connect 31 1 44 0;
#X connect 31 2 44 1;
#X connect 32 0 31 0;
#X connect 33 0 31 1;
#X connect 34 0 31 2;
#X connect 35 0 31 3;
#X connect 36 0 31 0;
#X connect 37 0 31 0;
#X connect 38 0 11 0;
#X connect 39 0 23 0;
#X connect 40 0 29 0;
#X connect 41 0 37 0;
#X connect 45 1 54 0;
#X connect 45 2 54 1;
#X connect 46 0 45 0;
#X connect 47 0 45 1;
#X connect 48 0 45 2;
#X connect 49 0 45 3;
#X connect 50 0 53 0;
#X connect 51 0 52 0;
#X connect 52 0 45 0;
#X connect 53 0 45 0;
