#N canvas 666 122 323 661 12;
#X declare -path ../externals;
#X declare -path ../externals/ssr;
#N canvas 1508 532 1850 984 osc-receiver.subpatch 0;
#X obj 89 445 netreceive -u -b;
#X obj 89 469 oscparse;
#X obj 63 765 outlet;
#X obj 138 386 inlet;
#X obj 183 827 outlet;
#X obj 129 611 spigot;
#X obj 168 583 inlet;
#X obj 286 837 outlet;
#X msg 89 415 listen \$1;
#X obj 89 493 list trim;
#X obj 89 518 list split 3;
#X obj 129 636 unpack f f f, f 16;
#X obj 129 660 expr round($f1);
#X obj 237 715 expr round($f1);
#X obj 183 690 expr round($f1);
#X floatatom 195 133 7 0 0 0 - - - 0;
#X obj 196 158 tgl 20 0 empty empty empty 17 7 0 10 #ffffff #000000
#000000 0 1;
#X floatatom 196 184 7 0 0 0 - - - 0;
#X floatatom 267 184 7 0 0 0 - - - 0;
#X floatatom 335 184 7 0 0 0 - - - 0;
#X text 207 204 yaw;
#X text 273 204 pitch;
#X text 340 204 roll;
#X text 105 132 osc port;
#X text 106 158 activate;
#X text 106 184 coordinates;
#X text 364 103 src1;
#X obj 555 64 r src1-yaw;
#X obj 561 87 r src1-pitch;
#X obj 572 109 r src1-roll;
#X obj 532 152 s \$0-oscport-src1;
#X obj 533 178 s \$0-oscactivate-src1;
#X obj 90 362 r \$0-oscport-src1;
#X obj 28 789 s src1-yaw;
#X obj 134 851 s src1-pitch;
#X obj 244 861 s src1-roll;
#X obj 215 581 r \$0-oscactivate-src1;
#X connect 0 0 1 0;
#X connect 1 0 9 0;
#X connect 3 0 8 0;
#X connect 5 0 11 0;
#X connect 6 0 5 1;
#X connect 8 0 0 0;
#X connect 9 0 10 0;
#X connect 10 1 5 0;
#X connect 11 0 12 0;
#X connect 11 1 14 0;
#X connect 11 2 13 0;
#X connect 12 0 2 0;
#X connect 12 0 33 0;
#X connect 13 0 7 0;
#X connect 13 0 35 0;
#X connect 14 0 4 0;
#X connect 14 0 34 0;
#X connect 15 0 30 0;
#X connect 16 0 31 0;
#X connect 27 0 17 0;
#X connect 28 0 18 0;
#X connect 29 0 19 0;
#X connect 32 0 8 0;
#X connect 36 0 5 1;
#X coords 0 -1 1 1 300 125 1 100 100;
#X restore 10 256 pd osc-receiver.subpatch;
#N canvas -77 88 1411 866 file-loader.subpatch 0;
#X floatatom 228 135 8 0 0 0 - - - 0;
#X obj 413 154 s angular-range;
#X floatatom 228 165 8 0 0 0 - - - 0;
#X obj 413 184 s angular-resolution;
#X text 111 135 range (bipolar);
#X text 111 164 resolution;
#X listbox 228 193 10 0 0 0 - - - 0;
#X msg 461 1240 symbol ..done!;
#X obj 13 173 r done-msg;
#X text 111 193 status;
#X obj 461 613 until;
#X obj 461 636 f;
#X obj 491 636 + 1;
#X obj 586 775 list fromsymbol;
#X obj 586 821 list tosymbol;
#X obj 506 613 0;
#X msg 586 752 symbol array\$1;
#X obj 493 844 pack f f s, f 14;
#X obj 540 798 + 30;
#X obj 493 775 * 200;
#X obj 540 775 * 23;
#X obj 493 752 mod 3;
#X obj 540 752 div 3;
#X obj 107 484 s \$0-number-brirs;
#X obj 796 499 r \$0-number-brirs;
#X obj 461 1029 soundfiler;
#X obj 461 691 t f f f f;
#X obj 461 661 *;
#X obj 461 1061 t b;
#X obj 461 1087 f;
#X obj 510 1109 + 1;
#X floatatom 461 1139 5 0 0 0 - - - 0;
#X obj 139 461 s \$0-reset-counter;
#X obj 541 1003 r \$0-reset-counter;
#X obj 461 1167 %;
#X obj 461 1191 select 0 1;
#X obj 491 1061 1;
#X obj 249 353 t b f f;
#X obj 107 435 t f f;
#X obj 541 1029 t f b;
#X obj 107 411 expr ($f1 / $f2) * 2 + 1;
#X obj 107 369 t f f;
#X msg 493 867 obj \$1 \$2 array define \$3;
#X obj 586 798 list prepend 108 101 102 116 45;
#X obj 461 1110 t a a;
#N canvas -3421 -654 1850 984 \$0-arrays 0;
#X obj 830 30 array define right-array-60;
#X obj 1230 30 array define right-array-58;
#X obj 1030 53 array define right-array-56;
#X obj 830 76 array define right-array-54;
#X obj 1230 76 array define right-array-52;
#X obj 1030 99 array define right-array-50;
#X obj 830 122 array define right-array-48;
#X obj 1230 122 array define right-array-46;
#X obj 1030 145 array define right-array-44;
#X obj 830 168 array define right-array-42;
#X obj 1230 168 array define right-array-40;
#X obj 1030 191 array define right-array-38;
#X obj 830 214 array define right-array-36;
#X obj 1230 214 array define right-array-34;
#X obj 1030 237 array define right-array-32;
#X obj 830 260 array define right-array-30;
#X obj 1230 260 array define right-array-28;
#X obj 1030 283 array define right-array-26;
#X obj 830 306 array define right-array-24;
#X obj 1230 306 array define right-array-22;
#X obj 1030 329 array define right-array-20;
#X obj 830 352 array define right-array-18;
#X obj 1230 352 array define right-array-16;
#X obj 1030 375 array define right-array-14;
#X obj 830 398 array define right-array-12;
#X obj 1230 398 array define right-array-10;
#X obj 1030 421 array define right-array-8;
#X obj 830 444 array define right-array-6;
#X obj 1230 444 array define right-array-4;
#X obj 1030 467 array define right-array-2;
#X obj 830 490 array define right-array0;
#X obj 1230 490 array define right-array2;
#X obj 1030 513 array define right-array4;
#X obj 830 536 array define right-array6;
#X obj 1230 536 array define right-array8;
#X obj 1030 559 array define right-array10;
#X obj 830 582 array define right-array12;
#X obj 1230 582 array define right-array14;
#X obj 1030 605 array define right-array16;
#X obj 830 628 array define right-array18;
#X obj 1230 628 array define right-array20;
#X obj 1030 651 array define right-array22;
#X obj 830 674 array define right-array24;
#X obj 1230 674 array define right-array26;
#X obj 1030 697 array define right-array28;
#X obj 830 720 array define right-array30;
#X obj 1230 720 array define right-array32;
#X obj 1030 743 array define right-array34;
#X obj 830 766 array define right-array36;
#X obj 1230 766 array define right-array38;
#X obj 1030 789 array define right-array40;
#X obj 830 812 array define right-array42;
#X obj 1230 812 array define right-array44;
#X obj 1030 835 array define right-array46;
#X obj 830 858 array define right-array48;
#X obj 1230 858 array define right-array50;
#X obj 1030 881 array define right-array52;
#X obj 830 904 array define right-array54;
#X obj 1230 904 array define right-array56;
#X obj 1030 927 array define right-array58;
#X obj 830 950 array define right-array60;
#X obj 30 30 array define left-array-60;
#X obj 430 30 array define left-array-58;
#X obj 230 53 array define left-array-56;
#X obj 30 76 array define left-array-54;
#X obj 430 76 array define left-array-52;
#X obj 230 99 array define left-array-50;
#X obj 30 122 array define left-array-48;
#X obj 430 122 array define left-array-46;
#X obj 230 145 array define left-array-44;
#X obj 30 168 array define left-array-42;
#X obj 430 168 array define left-array-40;
#X obj 230 191 array define left-array-38;
#X obj 30 214 array define left-array-36;
#X obj 430 214 array define left-array-34;
#X obj 230 237 array define left-array-32;
#X obj 30 260 array define left-array-30;
#X obj 430 260 array define left-array-28;
#X obj 230 283 array define left-array-26;
#X obj 30 306 array define left-array-24;
#X obj 430 306 array define left-array-22;
#X obj 230 329 array define left-array-20;
#X obj 30 352 array define left-array-18;
#X obj 430 352 array define left-array-16;
#X obj 230 375 array define left-array-14;
#X obj 30 398 array define left-array-12;
#X obj 430 398 array define left-array-10;
#X obj 230 421 array define left-array-8;
#X obj 30 444 array define left-array-6;
#X obj 430 444 array define left-array-4;
#X obj 230 467 array define left-array-2;
#X obj 30 490 array define left-array0;
#X obj 430 490 array define left-array2;
#X obj 230 513 array define left-array4;
#X obj 30 536 array define left-array6;
#X obj 430 536 array define left-array8;
#X obj 230 559 array define left-array10;
#X obj 30 582 array define left-array12;
#X obj 430 582 array define left-array14;
#X obj 230 605 array define left-array16;
#X obj 30 628 array define left-array18;
#X obj 430 628 array define left-array20;
#X obj 230 651 array define left-array22;
#X obj 30 674 array define left-array24;
#X obj 430 674 array define left-array26;
#X obj 230 697 array define left-array28;
#X obj 30 720 array define left-array30;
#X obj 430 720 array define left-array32;
#X obj 230 743 array define left-array34;
#X obj 30 766 array define left-array36;
#X obj 430 766 array define left-array38;
#X obj 230 789 array define left-array40;
#X obj 30 812 array define left-array42;
#X obj 430 812 array define left-array44;
#X obj 230 835 array define left-array46;
#X obj 30 858 array define left-array48;
#X obj 430 858 array define left-array50;
#X obj 230 881 array define left-array52;
#X obj 30 904 array define left-array54;
#X obj 430 904 array define left-array56;
#X obj 230 927 array define left-array58;
#X obj 30 950 array define left-array60;
#X restore 10 11 pd \$0-arrays;
#X obj 493 890 s pd-\$0-arrays;
#X obj 461 787 -;
#X obj 586 728 -;
#X obj 828 603 until;
#X obj 828 626 f;
#X obj 858 626 + 1;
#X msg 930 603 clear;
#X obj 954 772 list fromsymbol;
#X obj 954 818 list tosymbol;
#X obj 873 603 0;
#X obj 828 572 t f b b;
#X msg 954 749 symbol array\$1;
#X obj 861 841 pack f f s, f 14;
#X obj 908 795 + 30;
#X obj 861 772 * 200;
#X obj 908 772 * 23;
#X obj 861 749 mod 3;
#X obj 908 749 div 3;
#X obj 828 1019 soundfiler;
#X obj 828 681 t f f f f;
#X obj 828 651 *;
#X obj 828 1053 t b;
#X obj 828 1079 f;
#X obj 877 1101 + 1;
#X floatatom 828 1131 5 0 0 0 - - - 0;
#X obj 909 993 r \$0-reset-counter;
#X obj 828 1159 %;
#X obj 828 1183 select 0 1;
#X obj 858 1053 1;
#X obj 909 1019 t f b;
#X msg 861 864 obj \$1 \$2 array define \$3;
#X obj 828 1102 t a a;
#X obj 930 626 s pd-\$0-arrays;
#X obj 861 887 s pd-\$0-arrays;
#X obj 828 766 -;
#X obj 954 725 -;
#X obj 954 795 list prepend 114 105 103 104 116 45;
#X obj 493 798 + 30;
#X obj 796 523 t f f;
#X obj 861 795 + 830;
#X obj 461 1265 s done-msg;
#X text 101 71 range currently two-dimensional (azimuth);
#X obj 107 344 r angular-range;
#X obj 249 329 r angular-resolution;
#X obj 461 575 t f b;
#X obj 228 14 loadbang;
#X msg 228 39 symbol empty..;
#X msg 828 917 read -resize ../resources/convolved/convolved_R1_\$1azim_0elev_right.wav
right-array\$1, f 31;
#X msg 461 923 read -resize ../resources/convolved/convolved_R1_\$1azim_0elev_left.wav
left-array\$1, f 31;
#X connect 0 0 1 0;
#X connect 2 0 3 0;
#X connect 7 0 86 0;
#X connect 8 0 6 0;
#X connect 10 0 11 0;
#X connect 11 0 12 0;
#X connect 11 0 27 0;
#X connect 12 0 11 1;
#X connect 13 0 43 0;
#X connect 14 0 17 2;
#X connect 15 0 11 1;
#X connect 16 0 13 0;
#X connect 17 0 42 0;
#X connect 18 0 17 1;
#X connect 19 0 83 0;
#X connect 20 0 18 0;
#X connect 21 0 19 0;
#X connect 22 0 20 0;
#X connect 24 0 84 0;
#X connect 25 0 28 0;
#X connect 26 0 47 0;
#X connect 26 1 21 0;
#X connect 26 2 22 0;
#X connect 26 3 48 0;
#X connect 27 0 26 0;
#X connect 28 0 29 0;
#X connect 29 0 44 0;
#X connect 30 0 29 1;
#X connect 31 0 34 0;
#X connect 33 0 39 0;
#X connect 34 0 35 0;
#X connect 35 0 7 0;
#X connect 36 0 29 1;
#X connect 37 0 40 0;
#X connect 37 1 40 1;
#X connect 37 2 27 1;
#X connect 37 2 66 1;
#X connect 38 0 23 0;
#X connect 38 1 32 0;
#X connect 39 0 34 1;
#X connect 39 1 36 0;
#X connect 40 0 38 0;
#X connect 41 0 40 0;
#X connect 41 1 47 1;
#X connect 41 1 48 1;
#X connect 41 1 80 1;
#X connect 41 1 81 1;
#X connect 42 0 46 0;
#X connect 43 0 14 0;
#X connect 44 0 31 0;
#X connect 44 1 30 0;
#X connect 47 0 94 0;
#X connect 48 0 16 0;
#X connect 49 0 50 0;
#X connect 50 0 51 0;
#X connect 50 0 66 0;
#X connect 51 0 50 1;
#X connect 52 0 78 0;
#X connect 53 0 82 0;
#X connect 54 0 58 2;
#X connect 55 0 50 1;
#X connect 56 0 49 0;
#X connect 56 1 55 0;
#X connect 56 2 52 0;
#X connect 57 0 53 0;
#X connect 58 0 76 0;
#X connect 59 0 58 1;
#X connect 60 0 85 0;
#X connect 61 0 59 0;
#X connect 62 0 60 0;
#X connect 63 0 61 0;
#X connect 64 0 67 0;
#X connect 65 0 80 0;
#X connect 65 1 62 0;
#X connect 65 2 63 0;
#X connect 65 3 81 0;
#X connect 66 0 65 0;
#X connect 67 0 68 0;
#X connect 68 0 77 0;
#X connect 69 0 68 1;
#X connect 70 0 72 0;
#X connect 71 0 75 0;
#X connect 72 0 73 0;
#X connect 73 0 7 0;
#X connect 74 0 68 1;
#X connect 75 0 72 1;
#X connect 75 1 74 0;
#X connect 76 0 79 0;
#X connect 77 0 70 0;
#X connect 77 1 69 0;
#X connect 80 0 93 0;
#X connect 81 0 57 0;
#X connect 82 0 54 0;
#X connect 83 0 17 0;
#X connect 84 0 90 0;
#X connect 84 1 56 0;
#X connect 85 0 58 0;
#X connect 88 0 41 0;
#X connect 89 0 37 0;
#X connect 90 0 10 0;
#X connect 90 1 15 0;
#X connect 91 0 92 0;
#X connect 92 0 6 0;
#X connect 93 0 64 0;
#X connect 94 0 25 0;
#X coords 0 -1 1 1 300 130 1 100 100;
#X restore 11 122 pd file-loader.subpatch;
#N canvas 1002 643 1850 984 binaural-player.subpatch 0;
#X obj 1142 557 hsl 162 19 0 1 0 0 empty empty empty -2 -10 0 12 #fcfcfc
#000000 #000000 0 1;
#X obj 1139 531 line, f 18;
#X obj 1139 396 tgl 19 0 empty empty empty 0 -10 0 12 #fcfcfc #000000
#000000 0 1;
#X obj 1139 421 select 0 1, f 18;
#X msg 1139 494 0 \$1;
#X msg 1200 494 1 \$1;
#X obj 1200 468 f 5.3;
#X obj 1139 467 f 5.3;
#X obj 956 408 * 1000;
#X obj 956 431 / 48000;
#X obj 219 338 loadbang;
#X obj 1122 1031 == 0;
#X obj 1314 1031 == 1;
#X obj 1122 1056 change 0;
#X obj 1314 1055 change 0;
#X obj 1122 1081 select 1;
#X obj 1314 1080 select 1;
#X obj 1139 361 t b f, f 10;
#X obj 544 658 swap 1;
#X obj 544 682 -, f 6;
#X obj 388 716 *~;
#X obj 526 716 *~;
#X obj 701 713 *~;
#X obj 835 714 *~;
#X obj 387 763 +~;
#X obj 526 762 +~;
#X obj 387 833 outlet~;
#X obj 526 832 outlet~;
#X msg 1314 1198 set \$1;
#X msg 1122 1201 set \$1;
#X obj 1122 1174 makefilename left-array%d;
#X obj 1314 1173 makefilename left-array%d;
#X obj 1122 1143 f;
#X obj 1314 1142 f;
#X msg 1122 1287 set \$1;
#X obj 1122 1263 makefilename right-array%d;
#X msg 1314 1288 set \$1;
#X obj 1314 1263 makefilename right-array%d;
#X obj 504 619 spigot;
#X msg 31 551 stop;
#X obj 1139 258 t f f, f 6;
#X obj 1139 336 spigot;
#X obj 1178 309 == 0;
#X obj 1178 284 mod 1;
#X obj 1210 258 r angular-resolution;
#X obj 181 525 list append, f 12;
#X obj 181 551 list trim;
#X obj 219 158 bng 20 250 50 0 empty empty empty 17 7 0 10 #c6ffc7
#000000 #000000;
#X floatatom 219 186 12 0 0 0 - - - 0;
#X obj 219 210 tgl 20 0 empty empty empty 17 7 0 10 #fcfcfc #000000
#000000 0 1;
#X obj 222 241 hsl 128 15 0 1 0 0 empty empty empty -2 -8 0 10 #ffe3c6
#000000 #000000 0 1;
#X obj 25 196 loadbang;
#X obj 25 221 f 0;
#X text 107 157 sart | stop;
#X obj 253 158 bng 20 250 50 0 empty empty empty 17 7 0 10 #ffc7c6
#000000 #000000;
#X text 108 183 start sample;
#X text 108 239 volume;
#X text 108 210 loop;
#X obj 449 230 s \$0-loop-binPlayer;
#X obj 543 595 r \$0-loop-binPlayer;
#X obj 449 256 s \$0-volume-binPlayer;
#X obj 599 178 s \$0-stop-binPlayer;
#X obj 181 476 r \$0-start-binPlayer;
#X obj 332 476 r \$0-start-time-binPlayer;
#X obj 31 526 r \$0-stop-binPlayer;
#X floatatom 219 267 12 0 0 0 - - - 0;
#X obj 388 545 r buffer1-left-p1;
#X obj 525 544 r buffer1-right-p1;
#X obj 700 543 r buffer2-left-p1;
#X obj 834 543 r buffer2-right-p1;
#X obj 1314 1313 s buffer2-right-p1;
#X obj 1314 1223 s buffer2-left-p1;
#X obj 1122 1226 s buffer1-left-p1;
#X obj 1206 387 s \$0-currentAngle-p1;
#X obj 1139 585 s \$0-currentSelected-p1;
#X obj 1383 1081 r \$0-currentAngle-p1;
#X obj 1122 989 r \$0-currentSelected-p1;
#X obj 1139 231 r src1-yaw;
#X text 108 264 sample overlap;
#X obj 449 286 s \$0-blend-binPlayer;
#X obj 956 382 r \$0-blend-binPlayer;
#X msg 181 501 bang;
#X obj 220 303 bng 15 250 50 0 empty empty empty 17 7 0 10 #ffffff
#c6feff #ff0400;
#X obj 449 178 s \$0-start-binPlayer;
#X obj 449 205 s \$0-start-time-binPlayer;
#X obj 387 807 *~;
#X obj 526 806 *~;
#X obj 629 770 r \$0-volume-binPlayer;
#X obj 1122 1312 s buffer1-right-p1;
#X text 108 300 osc receive;
#X text 345 100 player1;
#X obj 19 18 array define default1;
#X obj 388 571 tabplay~ default1;
#X obj 525 571 tabplay~ default1;
#X obj 700 571 tabplay~ default1;
#X obj 834 571 tabplay~ default1;
#X obj 219 362 f 128;
#X connect 0 0 18 0;
#X connect 0 0 22 1;
#X connect 0 0 23 1;
#X connect 0 0 74 0;
#X connect 1 0 0 0;
#X connect 2 0 3 0;
#X connect 3 0 7 0;
#X connect 3 1 6 0;
#X connect 4 0 1 0;
#X connect 5 0 1 0;
#X connect 6 0 5 0;
#X connect 7 0 4 0;
#X connect 8 0 9 0;
#X connect 9 0 7 1;
#X connect 9 0 6 1;
#X connect 10 0 96 0;
#X connect 11 0 13 0;
#X connect 12 0 14 0;
#X connect 13 0 15 0;
#X connect 14 0 16 0;
#X connect 15 0 32 0;
#X connect 16 0 33 0;
#X connect 17 0 2 0;
#X connect 17 0 82 0;
#X connect 17 1 73 0;
#X connect 18 0 19 0;
#X connect 18 1 19 1;
#X connect 19 0 21 1;
#X connect 19 0 20 1;
#X connect 20 0 24 0;
#X connect 21 0 25 0;
#X connect 22 0 24 1;
#X connect 23 0 25 1;
#X connect 24 0 85 0;
#X connect 25 0 86 0;
#X connect 28 0 71 0;
#X connect 29 0 72 0;
#X connect 30 0 29 0;
#X connect 31 0 28 0;
#X connect 32 0 30 0;
#X connect 32 0 35 0;
#X connect 33 0 31 0;
#X connect 33 0 37 0;
#X connect 34 0 88 0;
#X connect 35 0 34 0;
#X connect 36 0 70 0;
#X connect 37 0 36 0;
#X connect 38 0 92 0;
#X connect 38 0 93 0;
#X connect 38 0 94 0;
#X connect 38 0 95 0;
#X connect 39 0 92 0;
#X connect 39 0 93 0;
#X connect 39 0 94 0;
#X connect 39 0 95 0;
#X connect 40 0 41 0;
#X connect 40 1 43 0;
#X connect 41 0 17 0;
#X connect 42 0 41 1;
#X connect 43 0 42 0;
#X connect 44 0 43 1;
#X connect 45 0 46 0;
#X connect 46 0 92 0;
#X connect 46 0 93 0;
#X connect 46 0 94 0;
#X connect 46 0 95 0;
#X connect 47 0 83 0;
#X connect 48 0 84 0;
#X connect 49 0 58 0;
#X connect 50 0 60 0;
#X connect 51 0 52 0;
#X connect 52 0 50 0;
#X connect 54 0 61 0;
#X connect 59 0 38 1;
#X connect 62 0 81 0;
#X connect 63 0 45 1;
#X connect 64 0 39 0;
#X connect 65 0 79 0;
#X connect 66 0 92 0;
#X connect 67 0 93 0;
#X connect 68 0 94 0;
#X connect 69 0 95 0;
#X connect 75 0 32 1;
#X connect 75 0 33 1;
#X connect 76 0 11 0;
#X connect 76 0 12 0;
#X connect 77 0 40 0;
#X connect 80 0 8 0;
#X connect 81 0 45 0;
#X connect 85 0 26 0;
#X connect 86 0 27 0;
#X connect 87 0 85 1;
#X connect 87 0 86 1;
#X connect 92 0 20 0;
#X connect 92 1 38 0;
#X connect 93 0 21 0;
#X connect 94 0 22 0;
#X connect 95 0 23 0;
#X connect 96 0 65 0;
#X coords 0 -1 1 1 300 230 1 100 100;
#X restore 10 386 pd binaural-player.subpatch;
#X obj 10 620 dac~ 1 2, f 42;
#N canvas 3974 466 1260 540 tracking-inversion 0;
#X obj 192 138 tgl 15 0 empty empty empty 17 7 0 10 #fcfcfc #000000
#000000 0 1;
#X obj 192 166 expr if ($f1 == 1 \, $f1 \, -1), f 18;
#X text 107 78 set to 1 if azimuth is mirrored;
#X obj 192 207 s polarity-azim;
#X text 187 113 yaw;
#X obj 251 138 tgl 15 0 empty empty empty 17 7 0 10 #fcfcfc #000000
#000000 0 1;
#X text 238 113 pitch;
#X obj 304 138 tgl 15 0 empty empty empty 17 7 0 10 #fcfcfc #000000
#000000 0 1;
#X text 294 113 roll;
#X text 101 133 inverse;
#X obj 251 238 expr if ($f1 == 1 \, $f1 \, -1), f 18;
#X obj 251 279 s polarity-pitch;
#X obj 304 314 expr if ($f1 == 1 \, $f1 \, -1), f 18;
#X obj 304 355 s polarity-roll;
#X connect 0 0 1 0;
#X connect 1 0 3 0;
#X connect 5 0 10 0;
#X connect 7 0 12 0;
#X connect 10 0 11 0;
#X connect 12 0 13 0;
#X coords 0 -1 1 1 230 60 2 100 100;
#X restore 11 58 pd tracking-inversion;
#X obj 11 11 declare -path ../externals;
#X obj 11 34 declare -path ../externals/ssr;
#X connect 2 0 3 0;
#X connect 2 1 3 1;
