#N canvas 3611 -733 679 788 12;
#X declare -path ../externals;
#X declare -path ../externals/ssr;
#X obj 317 755 dac~ 1 2, f 42;
#X obj 11 11 declare -path ../externals;
#X obj 11 34 declare -path ../externals/ssr;
#X obj 11 123 source_player;
#X obj 316 123 file_loader 1;
#X obj 316 257 osc_receiver 1;
#X obj 331 680 convolver_4 1 2;
#X obj 316 444 binaural_player 1;
#X obj 11 329 source_input;
#X obj 11 58 tracking_inversion;
#X connect 6 0 0 0;
#X connect 6 1 0 1;
#X connect 7 0 0 0;
#X connect 7 1 0 1;
