#N canvas 835 501 1250 653 12;
#X declare -path ../externals;
#X declare -path ../externals/ssr;
#X obj 8 622 dac~ 1 2, f 42;
#N canvas 3974 466 1260 540 tracking-inversion 0;
#X obj 192 138 tgl 15 0 empty empty empty 17 7 0 10 #fcfcfc #000000
#000000 0 1;
#X obj 192 166 expr if ($f1 == 1 \, $f1 \, -1), f 18;
#X text 107 78 set to 1 if azimuth is mirrored;
#X obj 192 207 s polarity-azim;
#X text 187 113 yaw;
#X obj 251 138 tgl 15 0 empty empty empty 17 7 0 10 #fcfcfc #000000
#000000 0 1;
#X text 238 113 pitch;
#X obj 304 138 tgl 15 0 empty empty empty 17 7 0 10 #fcfcfc #000000
#000000 0 1;
#X text 294 113 roll;
#X text 101 133 inverse;
#X obj 251 238 expr if ($f1 == 1 \, $f1 \, -1), f 18;
#X obj 251 279 s polarity-pitch;
#X obj 304 314 expr if ($f1 == 1 \, $f1 \, -1), f 18;
#X obj 304 355 s polarity-roll;
#X connect 0 0 1 0;
#X connect 1 0 3 0;
#X connect 5 0 10 0;
#X connect 7 0 12 0;
#X connect 10 0 11 0;
#X connect 12 0 13 0;
#X coords 0 -1 1 1 230 60 2 100 100;
#X restore 9 58 pd tracking-inversion;
#X obj 9 11 declare -path ../externals;
#X obj 9 34 declare -path ../externals/ssr;
#X obj 319 622 dac~ 3 4, f 42;
#X obj 628 622 dac~ 5 6, f 42;
#X obj 935 622 dac~ 7 8, f 42;
#X obj 8 388 binaural_player 1;
#X obj 319 388 binaural_player 2;
#X obj 8 257 osc_receiver 1;
#X obj 320 257 osc_receiver 2;
#X obj 628 257 osc_receiver 3;
#X obj 628 388 binaural_player 3;
#X obj 935 258 osc_receiver 4;
#X obj 935 388 binaural_player 4;
#X obj 8 122 file_loader 1;
#X obj 320 122 file_loader 2;
#X obj 628 122 file_loader 3;
#X obj 936 122 file_loader 4;
#X connect 7 0 0 0;
#X connect 7 1 0 1;
#X connect 8 0 4 0;
#X connect 8 1 4 1;
#X connect 12 0 5 0;
#X connect 12 1 5 1;
#X connect 14 0 6 0;
#X connect 14 1 6 1;
