#N canvas 2842 -631 1248 710 12;
#X declare -path ../externals;
#X declare -path ../externals/ssr;
#X obj 8 675 dac~ 1 2, f 42;
#X obj 9 11 declare -path ../externals;
#X obj 9 34 declare -path ../externals/ssr;
#X obj 319 675 dac~ 3 4, f 42;
#X obj 628 675 dac~ 5 6, f 42;
#X obj 935 675 dac~ 7 8, f 42;
#X obj 8 441 binaural_player 1;
#X obj 319 441 binaural_player 2;
#X obj 8 257 osc_receiver 1;
#X obj 320 257 osc_receiver 2;
#X obj 628 257 osc_receiver 3;
#X obj 628 441 binaural_player 3;
#X obj 935 258 osc_receiver 4;
#X obj 935 441 binaural_player 4;
#X obj 8 122 file_loader 1;
#X obj 320 122 file_loader 2;
#X obj 628 122 file_loader 3;
#X obj 936 122 file_loader 4;
#X obj 9 57 tracking_inversion;
#X connect 6 0 0 0;
#X connect 6 1 0 1;
#X connect 7 0 3 0;
#X connect 7 1 3 1;
#X connect 11 0 4 0;
#X connect 11 1 4 1;
#X connect 13 0 5 0;
#X connect 13 1 5 1;
